<svg width="431" height="280" fill="none" xmlns="http://www.w3.org/2000/svg">
  <g clip-path="url(#a)">
    <path d="M244.994.947478 141.68 104.262c-1.027 1.027-1.68 2.52-1.68 4.013v168.552c0 1.773 1.4 3.173 3.173 3.173h168.55c1.493 0 2.893-.56 4.013-1.68l103.313-103.315c.747-.746 1.027-1.773.934-2.8-6.72-41.717-26.132-81.7554-58.237-113.9537C329.642 26.1462 289.604 6.64052 247.793.0141918c-1.026-.0933286-2.053.2799862-2.799.9332862Z" fill="#DBFEE8"/>
    <g filter="url(#b)">
      <rect x="23" y="22" width="323" height="208" rx="6" fill="#fff"/>
      <path d="M39.8848 53V42.8182h2.1527v4.4893h.1342l3.6641-4.4893h2.5802l-3.7784 4.5589L48.4608 53h-2.5753l-2.7891-4.1861-1.0589 1.2926V53h-2.1527ZM52.4169 53.1491c-.7855 0-1.4616-.1591-2.0284-.4772-.5635-.3215-.9976-.7756-1.3026-1.3623-.3049-.5899-.4573-1.2876-.4573-2.093 0-.7855.1524-1.4749.4573-2.0682.305-.5933.7342-1.0556 1.2877-1.3871.5568-.3314 1.2097-.4971 1.9588-.4971.5038 0 .9728.0812 1.4069.2436.4375.1591.8187.3994 1.1435.7209.3281.3215.5833.7258.7656 1.213.1823.4839.2735 1.0507.2735 1.7003v.5817h-6.4482v-1.3125h4.4546c0-.3049-.0663-.575-.1989-.8104-.1326-.2353-.3165-.4192-.5518-.5518-.2321-.1359-.5022-.2039-.8104-.2039-.3215 0-.6065.0746-.8551.2238-.2453.1458-.4375.343-.5767.5916-.1392.2453-.2105.5187-.2138.8203v1.2479c0 .3778.0696.7043.2088.9794.1425.2751.343.4872.6016.6363.2585.1492.5651.2238.9197.2238.2353 0 .4508-.0332.6463-.0995.1956-.0663.3629-.1657.5021-.2983.1392-.1325.2453-.2949.3182-.4872l1.9588.1293c-.0994.4706-.3032.8816-.6115 1.2329-.3049.348-.6993.6198-1.1832.8154-.4806.1922-1.0358.2883-1.6655.2883ZM58.4064 55.8636c-.2684 0-.5203-.0215-.7557-.0646-.232-.0398-.4242-.0912-.5767-.1541l.4773-1.581c.2486.0762.4723.1177.6712.1243.2022.0066.3762-.0398.522-.1392.1491-.0994.2701-.2685.3629-.5071l.1243-.3232-2.7393-7.8551h2.2272l1.581 5.608h.0795l1.5959-5.608h2.2422l-2.968 8.4617c-.1425.4109-.3364.7689-.5817 1.0738-.2419.3083-.5485.5452-.9197.711-.3713.169-.8187.2535-1.3424.2535ZM66.8084 53l-2.0781-7.6364h2.1427l1.1833 5.1307h.0696l1.2329-5.1307h2.103l1.2529 5.1009h.0646l1.1633-5.1009h2.1378L74.0073 53h-2.2422l-1.3125-4.8026h-.0945L69.0456 53h-2.2372ZM80.4691 53.1491c-.7722 0-1.4401-.164-2.0035-.4922-.5602-.3314-.9927-.7921-1.2976-1.3821-.305-.5932-.4574-1.281-.4574-2.0632 0-.7888.1524-1.4782.4574-2.0682.3049-.5932.7374-1.0539 1.2976-1.3821.5634-.3314 1.2313-.4971 2.0035-.4971.7723 0 1.4384.1657 1.9986.4971.5634.3282.9976.7889 1.3025 1.3821.305.59.4574 1.2794.4574 2.0682 0 .7822-.1524 1.47-.4574 2.0632-.3049.59-.7391 1.0507-1.3025 1.3821-.5602.3282-1.2263.4922-1.9986.4922Zm.0099-1.6406c.3514 0 .6447-.0994.88-.2983.2353-.2022.4127-.4773.532-.8253.1226-.348.1839-.7441.1839-1.1882 0-.4441-.0613-.8402-.1839-1.1882-.1193-.348-.2967-.6231-.532-.8253-.2353-.2022-.5286-.3033-.88-.3033-.3546 0-.6529.1011-.8948.3033-.2387.2022-.4193.4773-.5419.8253-.1194.348-.179.7441-.179 1.1882 0 .4441.0596.8402.179 1.1882.1226.348.3032.6231.5419.8253.2419.1989.5402.2983.8948.2983ZM85.6048 53v-7.6364h2.0532v1.3324h.0796c.1392-.474.3728-.8319.701-1.0739.3281-.2452.7059-.3679 1.1335-.3679.106 0 .2204.0067.343.0199.1227.0133.2304.0315.3232.0547v1.8793c-.0995-.0299-.237-.0564-.4127-.0796-.1756-.0232-.3364-.0348-.4822-.0348-.3116 0-.59.068-.8352.2039-.242.1325-.4342.3181-.5767.5568-.1392.2386-.2088.5137-.2088.8253V53h-2.1179ZM93.7917 53.1243c-.58 0-1.1053-.1492-1.576-.4475-.4673-.3016-.8385-.7441-1.1136-1.3274-.2718-.5866-.4077-1.3059-.4077-2.1577 0-.875.1409-1.6025.4226-2.1825.2817-.5833.6563-1.0192 1.1236-1.3075.4706-.2917.986-.4375 1.5462-.4375.4275 0 .7838.0729 1.0688.2187.2884.1426.5204.3215.6961.537.1789.2121.3148.4209.4076.6264h.0647v-3.8281h2.1129V53h-2.0881v-1.223h-.0895c-.0994.2121-.2403.4226-.4225.6314-.179.2055-.4127.3761-.701.512-.2851.1359-.6331.2039-1.0441.2039Zm.6712-1.6854c.3414 0 .6297-.0928.865-.2784.2387-.1889.421-.4524.5469-.7905.1293-.3381.1939-.7341.1939-1.1882 0-.4541-.063-.8485-.1889-1.1832-.126-.3348-.3082-.5933-.5469-.7756-.2386-.1823-.5286-.2734-.87-.2734-.348 0-.6413.0944-.88.2833-.2386.189-.4193.4508-.5419.7855-.1226.3348-.1839.7226-.1839 1.1634 0 .4441.0613.8369.1839 1.1783.126.338.3066.6032.5419.7954.2387.1889.532.2834.88.2834ZM112.515 47.9091c0 1.1103-.211 2.0549-.632 2.8338-.417.7789-.987 1.3738-1.71 1.7848-.719.4076-1.528.6115-2.426.6115-.905 0-1.717-.2055-2.436-.6165-.719-.411-1.288-1.0059-1.705-1.7848-.418-.7789-.627-1.7218-.627-2.8288 0-1.1104.209-2.055.627-2.8338.417-.7789.986-1.3722 1.705-1.7799.719-.411 1.531-.6164 2.436-.6164.898 0 1.707.2054 2.426.6164.723.4077 1.293 1.001 1.71 1.7799.421.7788.632 1.7234.632 2.8338Zm-2.183 0c0-.7193-.108-1.3258-.323-1.8196-.212-.4939-.512-.8684-.9-1.1236s-.842-.3828-1.362-.3828c-.52 0-.974.1276-1.362.3828-.388.2552-.69.6297-.905 1.1236-.212.4938-.318 1.1003-.318 1.8196 0 .7192.106 1.3257.318 1.8196.215.4938.517.8683.905 1.1236.388.2552.842.3828 1.362.3828.52 0 .974-.1276 1.362-.3828.388-.2553.688-.6298.9-1.1236.215-.4939.323-1.1004.323-1.8196ZM121.189 45.3636 118.519 53h-2.386l-2.67-7.6364h2.237l1.586 5.4638h.08l1.581-5.4638h2.242ZM125.507 53.1491c-.786 0-1.462-.1591-2.029-.4772-.563-.3215-.997-.7756-1.302-1.3623-.305-.5899-.458-1.2876-.458-2.093 0-.7855.153-1.4749.458-2.0682.305-.5933.734-1.0556 1.287-1.3871.557-.3314 1.21-.4971 1.959-.4971.504 0 .973.0812 1.407.2436.438.1591.819.3994 1.144.7209.328.3215.583.7258.765 1.213.183.4839.274 1.0507.274 1.7003v.5817h-6.448v-1.3125h4.454c0-.3049-.066-.575-.199-.8104-.132-.2353-.316-.4192-.552-.5518-.232-.1359-.502-.2039-.81-.2039-.321 0-.606.0746-.855.2238-.245.1458-.438.343-.577.5916-.139.2453-.21.5187-.214.8203v1.2479c0 .3778.07.7043.209.9794.143.2751.343.4872.602.6363.258.1492.565.2238.92.2238.235 0 .45-.0332.646-.0995.195-.0663.363-.1657.502-.2983.139-.1325.245-.2949.318-.4872l1.959.1293c-.099.4706-.303.8816-.612 1.2329-.304.348-.699.6198-1.183.8154-.48.1922-1.036.2883-1.665.2883ZM130.394 53v-7.6364h2.053v1.3324h.08c.139-.474.373-.8319.701-1.0739.328-.2452.706-.3679 1.133-.3679.106 0 .221.0067.343.0199.123.0133.231.0315.323.0547v1.8793c-.099-.0299-.237-.0564-.412-.0796-.176-.0232-.337-.0348-.483-.0348-.311 0-.59.068-.835.2039-.242.1325-.434.3181-.576.5568-.14.2386-.209.5137-.209.8253V53h-2.118ZM138.24 42.8182V53h-2.118V42.8182h2.118ZM142.114 53.1442c-.487 0-.921-.0846-1.302-.2536-.381-.1723-.683-.4259-.905-.7607-.219-.338-.328-.7589-.328-1.2627 0-.4243.078-.7806.233-1.0689.156-.2884.368-.5204.637-.696.268-.1757.573-.3083.915-.3978.344-.0895.706-.1524 1.083-.1889.445-.0464.803-.0895 1.074-.1293.272-.043.469-.106.592-.1889.123-.0828.184-.2055.184-.3679v-.0298c0-.3149-.1-.5585-.298-.7308-.196-.1724-.474-.2586-.836-.2586-.381 0-.684.0846-.909.2536-.226.1657-.375.3745-.448.6264l-1.959-.1591c.1-.464.295-.865.587-1.2031.292-.3414.668-.6032 1.128-.7855.465-.1856 1.001-.2784 1.611-.2784.425 0 .831.0497 1.218.1491.391.0995.738.2536 1.039.4624.305.2088.546.4773.721.8054.176.3248.264.7142.264 1.1683V53h-2.009v-1.059h-.059c-.123.2387-.287.4491-.493.6314-.205.179-.452.3199-.74.4226-.289.0994-.622.1492-1 .1492Zm.607-1.4617c.311 0 .587-.0613.825-.1839.239-.126.426-.295.562-.5071.136-.2122.204-.4525.204-.7209v-.8104c-.066.0431-.158.0829-.274.1193-.112.0332-.24.0647-.382.0945-.143.0265-.285.0514-.428.0746-.143.0198-.272.0381-.388.0546-.248.0365-.465.0945-.651.1741-.186.0795-.33.1872-.433.3231-.102.1326-.154.2983-.154.4972 0 .2883.105.5087.313.6612.213.1491.481.2237.806.2237ZM148.058 55.8636v-10.5h2.088v1.2827h.094c.093-.2055.227-.4143.403-.6264.179-.2155.411-.3944.696-.537.288-.1458.646-.2187 1.074-.2187.557 0 1.071.1458 1.541.4375.471.2883.847.7242 1.129 1.3075.281.58.422 1.3075.422 2.1825 0 .8518-.137 1.5711-.412 2.1577-.272.5833-.643 1.0258-1.114 1.3274-.467.2983-.991.4475-1.571.4475-.411 0-.761-.068-1.049-.2039-.285-.1359-.519-.3065-.701-.512-.182-.2088-.321-.4193-.418-.6314h-.064v4.0866h-2.118Zm2.073-6.6818c0 .4541.063.8501.189 1.1882.126.3381.308.6016.547.7905.238.1856.528.2784.87.2784.345 0 .636-.0945.875-.2834.238-.1922.419-.4574.542-.7954.126-.3414.189-.7342.189-1.1783 0-.4408-.062-.8286-.184-1.1634-.123-.3347-.304-.5965-.542-.7855-.239-.1889-.532-.2833-.88-.2833-.345 0-.637.0911-.875.2734-.235.1823-.416.4408-.542.7756-.126.3347-.189.7291-.189 1.1832Z" fill="#6C6E79"/>
      <path opacity=".5" fill-rule="evenodd" clip-rule="evenodd" d="M167.461 168.23c0 23.323-18.908 42.231-42.231 42.231S83 191.553 83 168.23 101.907 126 125.23 126c23.323 0 42.231 18.907 42.231 42.23Zm-42.231 38.783c21.419 0 38.783-17.364 38.783-38.783s-17.364-38.783-38.783-38.783-38.7826 17.364-38.7826 38.783 17.3636 38.783 38.7826 38.783Z" fill="#fff"/>
      <path opacity=".5" d="M164.013 168.23c0 21.419-17.364 38.783-38.783 38.783s-38.7827-17.364-38.7827-38.783 17.3637-38.783 38.7827-38.783c21.419 0 38.783 17.364 38.783 38.783Z" fill="#59DDAA"/>
      <path opacity=".5" fill-rule="evenodd" clip-rule="evenodd" d="M137.25 111.125c0 27.131-21.994 49.125-49.125 49.125S39 138.256 39 111.125 60.994 62 88.125 62s49.125 21.994 49.125 49.125Zm-49.125 45.678c25.227 0 45.678-20.451 45.678-45.678 0-25.2271-20.451-45.6776-45.678-45.6776-25.2271 0-45.6776 20.4505-45.6776 45.6776 0 25.227 20.4505 45.678 45.6776 45.678Z" fill="#fff"/>
      <path opacity=".5" d="M133.803 111.125c0 25.227-20.451 45.678-45.6781 45.678s-45.6776-20.451-45.6776-45.678c0-25.2272 20.4505-45.6777 45.6776-45.6777 25.2271 0 45.6781 20.4505 45.6781 45.6777Z" fill="#2BB3FF"/>
      <path opacity=".5" d="M187.35 115c0 17.866-14.484 32.35-32.35 32.35s-32.35-14.484-32.35-32.35c0-17.8664 14.484-32.35 32.35-32.35s32.35 14.4836 32.35 32.35Z" fill="#FF8C43" stroke="#fff" stroke-width="3.3"/>
      <rect x="213" y="91" width="12" height="12" rx="4" fill="#2BB3FF"/>
      <path d="M234.307 102.045c-.142 0-.269-.011-.38-.035-.112-.021-.188-.043-.231-.064l.213-.739c.204.052.384.071.54.057.156-.014.295-.084.415-.209.123-.123.236-.323.338-.6l.156-.427-2.017-5.4825h.909l1.506 4.3465h.056l1.506-4.3465h.909l-2.315 6.2495c-.104.282-.233.515-.387.7-.154.187-.333.326-.536.416-.202.089-.429.134-.682.134ZM240.854 100.114c-.492 0-.925-.1176-1.296-.3519-.37-.2344-.658-.5623-.867-.9837-.206-.4214-.309-.9138-.309-1.4773 0-.5681.103-1.0641.309-1.4879.209-.4238.497-.7528.867-.9872.371-.2344.804-.3516 1.296-.3516s.923.1172 1.293.3516c.371.2344.66.5634.866.9872.208.4238.313.9198.313 1.4879 0 .5635-.105 1.0559-.313 1.4773-.206.4214-.495.7493-.866.9837-.37.2343-.801.3519-1.293.3519Zm0-.7532c.374 0 .682-.0959.923-.2876.242-.1918.42-.4439.536-.7564.116-.3125.174-.6511.174-1.0157 0-.3645-.058-.7043-.174-1.0191-.116-.3149-.294-.5694-.536-.7635-.241-.1942-.549-.2912-.923-.2912s-.682.097-.923.2912c-.242.1941-.421.4486-.537.7635-.116.3148-.174.6546-.174 1.0191 0 .3646.058.7032.174 1.0157.116.3125.295.5646.537.7564.241.1917.549.2876.923.2876ZM247.542 97.7699v-3.2244h.838V100h-.838v-.9233h-.056c-.128.277-.327.5126-.597.7067-.27.1917-.611.2876-1.023.2876-.341 0-.644-.0746-.909-.2237-.265-.1515-.473-.3788-.625-.6818-.151-.3054-.227-.6901-.227-1.1541v-3.4659h.838v3.409c0 .3978.111.715.334.9517.225.2368.511.3552.859.3552.208 0 .42-.0533.636-.1598.218-.1066.4-.2699.547-.4901.149-.2202.223-.5007.223-.8416ZM249.415 100v-5.4545h.81v.8238h.057c.099-.2699.279-.4889.54-.6569.26-.1681.554-.2522.88-.2522.062 0 .139.0012.231.0036.092.0023.162.0059.21.0106v.8523c-.029-.0071-.094-.0178-.196-.032-.099-.0165-.204-.0248-.316-.0248-.265 0-.502.0556-.71.1669-.206.1089-.369.2604-.49.4545-.118.1918-.178.4108-.178.657V100h-.838ZM257.008 100.114c-.454 0-.856-.1152-1.204-.3448-.348-.232-.62-.5587-.816-.9801-.197-.4238-.295-.9245-.295-1.5022 0-.5729.098-1.07.295-1.4914.196-.4214.47-.747.82-.9766.35-.2296.755-.3445 1.214-.3445.356 0 .636.0592.842.1776.208.116.367.2486.476.3977.111.1468.198.2675.259.3622h.071v-2.6846h.838V100h-.809v-.8381h-.1c-.061.0995-.149.2249-.263.3765-.113.1491-.275.2829-.486.4012-.211.1164-.491.1744-.842.1744Zm.114-.7532c.336 0 .62-.0876.852-.2628.232-.1775.409-.4226.529-.7351.121-.3148.181-.6782.181-1.0902 0-.4072-.059-.7635-.177-1.0689-.119-.3077-.294-.5468-.526-.7173-.232-.1728-.518-.2592-.859-.2592-.355 0-.651.0911-.888.2734-.234.1799-.411.425-.529.7351-.116.3078-.174.6534-.174 1.0369 0 .3883.059.741.178 1.0583.12.3148.298.5658.532.7528.237.1847.531.277.881.277ZM262.875 100.114c-.492 0-.924-.1176-1.296-.3519-.369-.2344-.658-.5623-.866-.9837-.206-.4214-.309-.9138-.309-1.4773 0-.5681.103-1.0641.309-1.4879.208-.4238.497-.7528.866-.9872.372-.2344.804-.3516 1.296-.3516.493 0 .924.1172 1.293.3516.372.2344.661.5634.867.9872.208.4238.312.9198.312 1.4879 0 .5635-.104 1.0559-.312 1.4773-.206.4214-.495.7493-.867.9837-.369.2343-.8.3519-1.293.3519Zm0-.7532c.374 0 .682-.0959.924-.2876.241-.1918.42-.4439.536-.7564.116-.3125.174-.6511.174-1.0157 0-.3645-.058-.7043-.174-1.0191-.116-.3149-.295-.5694-.536-.7635-.242-.1942-.55-.2912-.924-.2912s-.681.097-.923.2912c-.241.1941-.42.4486-.536.7635-.116.3148-.174.6546-.174 1.0191 0 .3646.058.7032.174 1.0157.116.3125.295.5646.536.7564.242.1917.549.2876.923.2876ZM266.126 100v-5.4545h.81v.8522h.071c.114-.2912.297-.5173.55-.6782.254-.1634.558-.2451.913-.2451.36 0 .659.0817.899.2451.241.1609.429.387.564.6782h.057c.14-.2817.349-.5054.629-.6711.279-.1681.614-.2522 1.004-.2522.488 0 .887.1527 1.197.4581.31.3031.465.7754.465 1.4169V100h-.838v-3.6506c0-.4024-.11-.6901-.33-.8629-.22-.1728-.479-.2592-.778-.2592-.383 0-.68.116-.891.348-.211.2296-.316.5208-.316.8736V100h-.852v-3.7358c0-.3101-.101-.5599-.302-.7493-.201-.1917-.461-.2876-.778-.2876-.218 0-.421.058-.611.174-.187.116-.338.277-.454.4829-.114.2036-.171.4392-.171.7067V100h-.838ZM275.923 100.128c-.346 0-.659-.065-.941-.1955-.282-.1325-.506-.3231-.671-.5717-.166-.251-.249-.554-.249-.9091 0-.3125.062-.5658.185-.7599.123-.1965.287-.3504.493-.4617.206-.1113.434-.1941.682-.2486.251-.0568.503-.1018.757-.1349.331-.0426.6-.0746.806-.0959.208-.0237.359-.0627.454-.1172.097-.0544.146-.1491.146-.2841v-.0284c0-.3504-.096-.6226-.288-.8167-.189-.1942-.477-.2912-.863-.2912-.4 0-.714.0876-.941.2628-.227.1751-.387.3622-.479.561l-.796-.2841c.142-.3314.332-.5894.568-.7741.24-.187.5-.3172.782-.3906.284-.0758.563-.1137.838-.1137.175 0 .376.0213.603.064.23.0402.451.1242.665.2521.215.1278.394.3208.536.5788.142.2581.213.6037.213 1.0369V100h-.838v-.7386h-.043c-.057.1183-.151.245-.284.3799-.132.135-.309.2498-.529.3445-.22.0942-.489.1422-.806.1422Zm.128-.753c.331 0 .61-.0651.838-.1953.229-.1302.402-.2983.518-.5043.119-.2059.178-.4226.178-.6498v-.7671c-.036.0426-.114.0817-.235.1172-.118.0332-.255.0627-.412.0888-.153.0237-.304.045-.451.0639-.144.0166-.261.0308-.351.0426-.218.0284-.421.0746-.611.1385-.187.0616-.338.1551-.454.2806-.114.1231-.171.2911-.171.5042 0 .2912.108.5114.323.6605.218.1468.494.2202.828.2202ZM279.453 100v-5.4545h.838V100h-.838Zm.426-6.3636c-.164 0-.305-.0557-.423-.1669-.116-.1113-.174-.2451-.174-.4013 0-.1563.058-.29.174-.4013.118-.1113.259-.1669.423-.1669.163 0 .303.0556.419.1669.118.1113.177.245.177.4013 0 .1562-.059.29-.177.4013-.116.1112-.256.1669-.419.1669ZM282.164 96.7188V100h-.838v-5.4545h.809v.8522h.071c.128-.277.322-.4995.583-.6676.26-.1704.596-.2557 1.008-.2557.369 0 .693.0758.97.2273.277.1492.492.3764.646.6818.154.3031.231.6866.231 1.1506V100h-.838v-3.4091c0-.4285-.112-.7623-.334-1.0014-.223-.2415-.528-.3622-.916-.3622-.268 0-.507.058-.718.174-.208.116-.373.2853-.493.5078-.121.2225-.181.4924-.181.8097ZM300.966 100.5v-.6391l2.4-2.6279c.282-.3077.514-.5752.696-.8025.183-.2297.318-.4451.405-.6463.09-.2036.135-.4167.135-.6392 0-.2557-.061-.4771-.184-.6641-.121-.187-.287-.3314-.498-.4332-.21-.1018-.447-.1527-.71-.1527-.279 0-.523.058-.731.174-.206.1136-.366.2734-.48.4794-.111.206-.167.4474-.167.7244h-.838c0-.4261.098-.8002.295-1.1221.196-.322.464-.573.803-.7529.34-.1799.723-.2699 1.147-.2699.426 0 .803.09 1.132.2699.329.1799.587.4226.775.728.187.3054.28.6451.28 1.0192 0 .2675-.048.5291-.146.7848-.094.2533-.26.5362-.497.8487-.234.3101-.56.6889-.976 1.1364l-1.634 1.7471v.0568h3.381v.7812h-4.588ZM307.352 100.557c-.175 0-.325-.063-.451-.188-.125-.126-.188-.276-.188-.4513 0-.1752.063-.3255.188-.451.126-.1255.276-.1882.451-.1882.176 0 .326.0627.451.1882.126.1255.189.2758.189.451 0 .1163-.03.2223-.089.3193-.057.097-.134.175-.231.235-.095.056-.201.085-.32.085ZM312.447 93.2274V100.5h-.881v-6.3493h-.042l-1.776 1.1789v-.8949l1.818-1.2073h.881ZM315.169 100.5v-.6391l2.401-2.6279c.281-.3077.513-.5752.696-.8025.182-.2297.317-.4451.404-.6463.09-.2036.135-.4167.135-.6392 0-.2557-.061-.4771-.184-.6641-.121-.187-.287-.3314-.498-.4332-.21-.1018-.447-.1527-.71-.1527-.279 0-.523.058-.731.174-.206.1136-.366.2734-.48.4794-.111.206-.167.4474-.167.7244h-.838c0-.4261.099-.8002.295-1.1221.197-.322.464-.573.803-.7529.341-.1799.723-.2699 1.147-.2699.426 0 .803.09 1.132.2699.33.1799.588.4226.775.728.187.3054.28.6451.28 1.0192 0 .2675-.048.5291-.145.7848-.095.2533-.261.5362-.498.8487-.234.3101-.559.6889-.976 1.1364l-1.634 1.7471v.0568h3.381v.7812h-4.588ZM321.058 93.2274h1.051l2.472 6.0369h.085l2.472-6.0369h1.051V100.5h-.824v-5.5255h-.071l-2.273 5.5255h-.795l-2.273-5.5255h-.071V100.5h-.824v-7.2726Z" fill="#484A54"/>
      <rect x="213" y="111" width="12" height="12" rx="4" fill="#59DDAA"/>
      <path d="M235.983 120.114c-.512 0-.952-.121-1.321-.363-.37-.241-.654-.574-.852-.997-.199-.424-.299-.908-.299-1.453 0-.554.102-1.043.306-1.466.206-.427.492-.759.859-.998.369-.242.8-.363 1.293-.363.383 0 .729.071 1.037.214.307.142.559.34.756.596.196.256.318.554.366.895h-.838c-.064-.249-.206-.469-.426-.661-.218-.194-.512-.291-.881-.291-.327 0-.613.085-.86.256-.243.168-.434.406-.571.714-.135.305-.203.664-.203 1.076 0 .421.067.788.199 1.101.135.312.324.555.568.728.247.172.535.259.867.259.218 0 .415-.038.593-.114.177-.076.328-.185.451-.327.123-.142.211-.312.263-.511h.838c-.048.322-.165.612-.352.87-.185.256-.43.459-.735.611-.303.149-.656.224-1.058.224ZM241.069 120.114c-.493 0-.925-.118-1.296-.352-.37-.234-.659-.562-.867-.984-.206-.421-.309-.913-.309-1.477 0-.568.103-1.064.309-1.488.208-.424.497-.753.867-.987.371-.234.803-.352 1.296-.352.492 0 .923.118 1.292.352.372.234.661.563.867.987.208.424.312.92.312 1.488 0 .564-.104 1.056-.312 1.477-.206.422-.495.75-.867.984-.369.234-.8.352-1.292.352Zm0-.753c.374 0 .682-.096.923-.288.242-.192.42-.444.536-.756.116-.313.174-.651.174-1.016 0-.364-.058-.704-.174-1.019-.116-.315-.294-.569-.536-.764-.241-.194-.549-.291-.923-.291s-.682.097-.924.291c-.241.195-.42.449-.536.764-.116.315-.174.655-.174 1.019 0 .365.058.703.174 1.016.116.312.295.564.536.756.242.192.55.288.924.288ZM244.32 120v-5.455h.809v.853h.071c.114-.291.297-.518.551-.679.253-.163.557-.245.912-.245.36 0 .66.082.899.245.241.161.43.388.564.679h.057c.14-.282.349-.506.629-.671.279-.169.614-.253 1.005-.253.487 0 .886.153 1.197.459.31.303.465.775.465 1.416V120h-.838v-3.651c0-.402-.11-.69-.331-.862-.22-.173-.479-.26-.777-.26-.384 0-.681.116-.892.348-.21.23-.316.521-.316.874V120h-.852v-3.736c0-.31-.101-.56-.302-.749-.201-.192-.46-.288-.777-.288-.218 0-.422.058-.611.174-.187.116-.339.277-.455.483-.113.204-.17.439-.17.707V120h-.838ZM252.511 122.045v-7.5h.81v.867h.099c.062-.095.147-.216.256-.362.111-.149.27-.282.476-.398.208-.118.49-.178.845-.178.459 0 .864.115 1.214.345.351.23.624.555.821.976.196.422.294.919.294 1.492 0 .578-.098 1.078-.294 1.502-.197.421-.469.748-.817.98-.348.23-.749.345-1.204.345-.35 0-.631-.058-.842-.174-.21-.119-.372-.253-.486-.402-.114-.151-.201-.277-.263-.376h-.071v2.883h-.838Zm.824-4.772c0 .412.06.775.181 1.09.121.312.297.557.529.735.232.175.516.263.852.263.351 0 .643-.093.878-.277.236-.187.414-.438.532-.753.121-.317.181-.67.181-1.058 0-.384-.059-.729-.177-1.037-.116-.31-.293-.555-.529-.735-.235-.183-.529-.274-.885-.274-.34 0-.627.087-.859.26-.232.17-.407.409-.526.717-.118.305-.177.662-.177 1.069ZM260.392 120.114c-.526 0-.979-.116-1.36-.348-.379-.235-.672-.561-.877-.98-.204-.422-.306-.912-.306-1.471 0-.558.102-1.051.306-1.477.205-.428.492-.762.859-1.001.369-.242.8-.363 1.293-.363.284 0 .564.048.841.142.277.095.529.249.757.462.227.211.408.49.543.838.135.348.202.777.202 1.286v.355h-4.204v-.725h3.352c0-.307-.062-.582-.185-.823-.12-.242-.293-.433-.518-.572-.223-.14-.485-.21-.788-.21-.334 0-.623.083-.867.249-.241.163-.427.376-.557.639-.131.263-.196.545-.196.845v.483c0 .412.071.761.213 1.048.145.284.345.5.6.65.256.146.553.22.892.22.22 0 .419-.031.596-.093.18-.063.335-.158.466-.284.13-.127.23-.286.301-.475l.81.227c-.085.274-.228.516-.43.724-.201.206-.449.367-.745.483-.296.114-.629.171-.998.171ZM265.797 114.545v.711h-2.826v-.711h2.826Zm-2.003-1.306h.839v5.199c0 .236.034.414.102.532.072.116.161.194.27.235.112.037.229.056.352.056.092 0 .168-.004.227-.014.059-.012.107-.021.142-.028l.171.753c-.057.021-.136.042-.238.064-.102.023-.231.035-.387.035-.237 0-.469-.051-.696-.153-.225-.101-.412-.257-.561-.465-.147-.208-.221-.471-.221-.788v-5.426ZM266.558 120v-5.455h.838V120h-.838Zm.426-6.364c-.163 0-.304-.055-.423-.167-.116-.111-.174-.245-.174-.401 0-.156.058-.29.174-.401.119-.111.26-.167.423-.167.163 0 .303.056.419.167.118.111.178.245.178.401 0 .156-.06.29-.178.401-.116.112-.256.167-.419.167ZM270.803 114.545v.711h-2.827v-.711h2.827Zm-2.003-1.306h.838v5.199c0 .236.035.414.103.532.071.116.161.194.27.235.111.037.229.056.352.056.092 0 .168-.004.227-.014.059-.012.107-.021.142-.028l.171.753c-.057.021-.137.042-.238.064-.102.023-.231.035-.387.035-.237 0-.469-.051-.696-.153-.225-.101-.412-.257-.562-.465-.146-.208-.22-.471-.22-.788v-5.426ZM273.721 120.114c-.492 0-.924-.118-1.296-.352-.369-.234-.658-.562-.867-.984-.206-.421-.308-.913-.308-1.477 0-.568.102-1.064.308-1.488.209-.424.498-.753.867-.987.372-.234.804-.352 1.296-.352.493 0 .923.118 1.293.352.371.234.66.563.866.987.209.424.313.92.313 1.488 0 .564-.104 1.056-.313 1.477-.206.422-.495.75-.866.984-.37.234-.8.352-1.293.352Zm0-.753c.374 0 .682-.096.923-.288.242-.192.421-.444.537-.756.116-.313.174-.651.174-1.016 0-.364-.058-.704-.174-1.019-.116-.315-.295-.569-.537-.764-.241-.194-.549-.291-.923-.291s-.682.097-.923.291c-.242.195-.42.449-.536.764-.116.315-.174.655-.174 1.019 0 .365.058.703.174 1.016.116.312.294.564.536.756.241.192.549.288.923.288ZM276.972 120v-5.455h.81v.824h.056c.1-.27.28-.489.54-.657.261-.168.554-.252.881-.252.061 0 .138.001.231.004.092.002.162.006.209.01v.853c-.028-.007-.093-.018-.195-.032-.099-.017-.205-.025-.316-.025-.265 0-.502.056-.71.167-.206.109-.37.26-.49.454-.119.192-.178.411-.178.657V120h-.838ZM304.219 113.227v7.273h-.881v-6.349h-.042l-1.776 1.179v-.895l1.818-1.208h.881ZM307.353 120.557c-.176 0-.326-.063-.451-.188-.126-.126-.189-.276-.189-.451s.063-.326.189-.451c.125-.126.275-.189.451-.189.175 0 .325.063.451.189.125.125.188.276.188.451 0 .116-.03.222-.089.319-.057.097-.134.175-.231.235-.095.056-.201.085-.319.085ZM311.467 120.6c-.535 0-.99-.146-1.367-.437-.376-.294-.664-.719-.863-1.275-.199-.559-.298-1.234-.298-2.024 0-.786.099-1.457.298-2.014.201-.558.49-.985.867-1.278.378-.296.833-.444 1.363-.444.531 0 .984.148 1.36.444.379.293.668.72.867 1.278.201.557.302 1.228.302 2.014 0 .79-.1 1.465-.299 2.024-.198.556-.486.981-.863 1.275-.376.291-.832.437-1.367.437Zm0-.782c.531 0 .943-.255 1.236-.767.294-.511.44-1.24.44-2.187 0-.63-.067-1.166-.202-1.609-.133-.443-.324-.78-.575-1.012-.249-.232-.548-.348-.899-.348-.525 0-.936.259-1.232.778-.296.516-.444 1.246-.444 2.191 0 .629.066 1.164.199 1.605.133.44.323.775.572 1.005.251.229.553.344.905.344ZM317.485 120.6c-.299-.005-.597-.062-.895-.171-.299-.109-.571-.292-.817-.55-.246-.261-.444-.612-.593-1.055-.149-.445-.224-1.004-.224-1.676 0-.644.06-1.215.181-1.712.121-.499.296-.92.526-1.26.229-.344.506-.604.831-.782.326-.177.695-.266 1.104-.266.407 0 .77.082 1.087.245.319.161.58.386.781.675.201.288.331.621.391.998h-.867c-.08-.327-.237-.598-.469-.814-.232-.215-.539-.323-.923-.323-.563 0-1.007.245-1.332.735-.322.49-.484 1.178-.486 2.063h.057c.132-.201.29-.372.472-.514.185-.145.388-.256.611-.334.222-.078.458-.117.707-.117.416 0 .797.104 1.143.312.346.206.623.491.831.856.208.362.312.778.312 1.246 0 .45-.1.862-.301 1.236-.202.372-.484.668-.849.888-.362.218-.788.324-1.278.32Zm0-.782c.298 0 .565-.074.802-.223.239-.15.427-.35.565-.601.139-.251.209-.53.209-.838 0-.3-.067-.574-.202-.82-.133-.249-.316-.446-.551-.593-.232-.147-.497-.22-.795-.22-.225 0-.435.045-.629.135-.194.087-.364.208-.511.362-.144.154-.258.33-.341.529-.083.197-.124.404-.124.622 0 .288.067.558.202.809.138.251.325.454.561.607.239.154.51.231.814.231ZM321.059 113.227h1.051l2.471 6.037h.086l2.471-6.037h1.051v7.273h-.824v-5.525h-.071l-2.272 5.525h-.796l-2.273-5.525h-.071v5.525h-.823v-7.273Z" fill="#484A54"/>
      <rect x="213" y="131" width="12" height="12" rx="4" fill="#FF8C43"/>
      <path d="M235.983 140.114c-.512 0-.952-.121-1.321-.363-.37-.241-.654-.574-.852-.997-.199-.424-.299-.908-.299-1.453 0-.554.102-1.043.306-1.466.206-.427.492-.759.859-.998.369-.242.8-.363 1.293-.363.383 0 .729.071 1.037.214.307.142.559.34.756.596.196.256.318.554.366.895h-.838c-.064-.249-.206-.469-.426-.661-.218-.194-.512-.291-.881-.291-.327 0-.613.085-.86.256-.243.168-.434.406-.571.714-.135.305-.203.664-.203 1.076 0 .421.067.788.199 1.101.135.312.324.555.568.728.247.172.535.259.867.259.218 0 .415-.038.593-.114.177-.076.328-.185.451-.327.123-.142.211-.312.263-.511h.838c-.048.322-.165.612-.352.87-.185.256-.43.459-.735.611-.303.149-.656.224-1.058.224ZM241.069 140.114c-.493 0-.925-.118-1.296-.352-.37-.234-.659-.562-.867-.984-.206-.421-.309-.913-.309-1.477 0-.568.103-1.064.309-1.488.208-.424.497-.753.867-.987.371-.234.803-.352 1.296-.352.492 0 .923.118 1.292.352.372.234.661.563.867.987.208.424.312.92.312 1.488 0 .564-.104 1.056-.312 1.477-.206.422-.495.75-.867.984-.369.234-.8.352-1.292.352Zm0-.753c.374 0 .682-.096.923-.288.242-.192.42-.444.536-.756.116-.313.174-.651.174-1.016 0-.364-.058-.704-.174-1.019-.116-.315-.294-.569-.536-.764-.241-.194-.549-.291-.923-.291s-.682.097-.924.291c-.241.195-.42.449-.536.764-.116.315-.174.655-.174 1.019 0 .365.058.703.174 1.016.116.312.295.564.536.756.242.192.55.288.924.288ZM244.32 140v-5.455h.809v.853h.071c.114-.291.297-.518.551-.679.253-.163.557-.245.912-.245.36 0 .66.082.899.245.241.161.43.388.564.679h.057c.14-.282.349-.506.629-.671.279-.169.614-.253 1.005-.253.487 0 .886.153 1.197.459.31.303.465.775.465 1.416V140h-.838v-3.651c0-.402-.11-.69-.331-.862-.22-.173-.479-.26-.777-.26-.384 0-.681.116-.892.348-.21.23-.316.521-.316.874V140h-.852v-3.736c0-.31-.101-.56-.302-.749-.201-.192-.46-.288-.777-.288-.218 0-.422.058-.611.174-.187.116-.339.277-.455.483-.113.204-.17.439-.17.707V140h-.838ZM252.511 142.045v-7.5h.81v.867h.099c.062-.095.147-.216.256-.362.111-.149.27-.282.476-.398.208-.118.49-.178.845-.178.459 0 .864.115 1.214.345.351.23.624.555.821.976.196.422.294.919.294 1.492 0 .578-.098 1.078-.294 1.502-.197.421-.469.748-.817.98-.348.23-.749.345-1.204.345-.35 0-.631-.058-.842-.174-.21-.119-.372-.253-.486-.402-.114-.151-.201-.277-.263-.376h-.071v2.883h-.838Zm.824-4.772c0 .412.06.775.181 1.09.121.312.297.557.529.735.232.175.516.263.852.263.351 0 .643-.093.878-.277.236-.187.414-.438.532-.753.121-.317.181-.67.181-1.058 0-.384-.059-.729-.177-1.037-.116-.31-.293-.555-.529-.735-.235-.183-.529-.274-.885-.274-.34 0-.627.087-.859.26-.232.17-.407.409-.526.717-.118.305-.177.662-.177 1.069ZM260.392 140.114c-.526 0-.979-.116-1.36-.348-.379-.235-.672-.561-.877-.98-.204-.422-.306-.912-.306-1.471 0-.558.102-1.051.306-1.477.205-.428.492-.762.859-1.001.369-.242.8-.363 1.293-.363.284 0 .564.048.841.142.277.095.529.249.757.462.227.211.408.49.543.838.135.348.202.777.202 1.286v.355h-4.204v-.725h3.352c0-.307-.062-.582-.185-.823-.12-.242-.293-.433-.518-.572-.223-.14-.485-.21-.788-.21-.334 0-.623.083-.867.249-.241.163-.427.376-.557.639-.131.263-.196.545-.196.845v.483c0 .412.071.761.213 1.048.145.284.345.5.6.65.256.146.553.22.892.22.22 0 .419-.031.596-.093.18-.063.335-.158.466-.284.13-.127.23-.286.301-.475l.81.227c-.085.274-.228.516-.43.724-.201.206-.449.367-.745.483-.296.114-.629.171-.998.171ZM265.797 134.545v.711h-2.826v-.711h2.826Zm-2.003-1.306h.839v5.199c0 .236.034.414.102.532.072.116.161.194.27.235.112.037.229.056.352.056.092 0 .168-.004.227-.014.059-.012.107-.021.142-.028l.171.753c-.057.021-.136.042-.238.064-.102.023-.231.035-.387.035-.237 0-.469-.051-.696-.153-.225-.101-.412-.257-.561-.465-.147-.208-.221-.471-.221-.788v-5.426ZM266.558 140v-5.455h.838V140h-.838Zm.426-6.364c-.163 0-.304-.055-.423-.167-.116-.111-.174-.245-.174-.401 0-.156.058-.29.174-.401.119-.111.26-.167.423-.167.163 0 .303.056.419.167.118.111.178.245.178.401 0 .156-.06.29-.178.401-.116.112-.256.167-.419.167ZM270.803 134.545v.711h-2.827v-.711h2.827Zm-2.003-1.306h.838v5.199c0 .236.035.414.103.532.071.116.161.194.27.235.111.037.229.056.352.056.092 0 .168-.004.227-.014.059-.012.107-.021.142-.028l.171.753c-.057.021-.137.042-.238.064-.102.023-.231.035-.387.035-.237 0-.469-.051-.696-.153-.225-.101-.412-.257-.562-.465-.146-.208-.22-.471-.22-.788v-5.426ZM273.721 140.114c-.492 0-.924-.118-1.296-.352-.369-.234-.658-.562-.867-.984-.206-.421-.308-.913-.308-1.477 0-.568.102-1.064.308-1.488.209-.424.498-.753.867-.987.372-.234.804-.352 1.296-.352.493 0 .923.118 1.293.352.371.234.66.563.866.987.209.424.313.92.313 1.488 0 .564-.104 1.056-.313 1.477-.206.422-.495.75-.866.984-.37.234-.8.352-1.293.352Zm0-.753c.374 0 .682-.096.923-.288.242-.192.421-.444.537-.756.116-.313.174-.651.174-1.016 0-.364-.058-.704-.174-1.019-.116-.315-.295-.569-.537-.764-.241-.194-.549-.291-.923-.291s-.682.097-.923.291c-.242.195-.42.449-.536.764-.116.315-.174.655-.174 1.019 0 .365.058.703.174 1.016.116.312.294.564.536.756.241.192.549.288.923.288ZM276.972 140v-5.455h.81v.824h.056c.1-.27.28-.489.54-.657.261-.168.554-.252.881-.252.061 0 .138.001.231.004.092.002.162.006.209.01v.853c-.028-.007-.093-.018-.195-.032-.099-.017-.205-.025-.316-.025-.265 0-.502.056-.71.167-.206.109-.37.26-.49.454-.119.192-.178.411-.178.657V140h-.838ZM303.239 140.6c-.535 0-.991-.146-1.367-.437-.377-.294-.664-.719-.863-1.275-.199-.559-.299-1.234-.299-2.024 0-.786.1-1.457.299-2.014.201-.558.49-.985.866-1.278.379-.296.834-.444 1.364-.444.53 0 .984.148 1.36.444.379.293.668.72.866 1.278.202.557.302 1.228.302 2.014 0 .79-.099 1.465-.298 2.024-.199.556-.487.981-.863 1.275-.376.291-.832.437-1.367.437Zm0-.782c.53 0 .942-.255 1.236-.767.293-.511.44-1.24.44-2.187 0-.63-.067-1.166-.202-1.609-.133-.443-.325-.78-.576-1.012-.248-.232-.548-.348-.898-.348-.526 0-.936.259-1.232.778-.296.516-.444 1.246-.444 2.191 0 .629.066 1.164.199 1.605.132.44.323.775.571 1.005.251.229.553.344.906.344ZM307.353 140.557c-.176 0-.326-.063-.451-.188-.126-.126-.189-.276-.189-.451s.063-.326.189-.451c.125-.126.275-.189.451-.189.175 0 .325.063.451.189.125.125.188.276.188.451 0 .116-.03.222-.089.319-.057.097-.134.175-.231.235-.094.056-.201.085-.319.085ZM309.592 140.5l3.253-6.435v-.056h-3.75v-.782h4.659v.824l-3.238 6.449h-.924ZM317.414 140.6c-.417 0-.792-.083-1.126-.249-.334-.166-.601-.393-.803-.682-.201-.289-.311-.618-.33-.987h.852c.033.329.183.601.448.817.267.213.587.319.959.319.298 0 .563-.07.795-.209.234-.14.418-.332.55-.576.135-.246.203-.524.203-.834 0-.317-.07-.6-.21-.849-.137-.251-.326-.448-.568-.593-.241-.144-.517-.218-.827-.22-.223-.002-.451.032-.686.103-.234.069-.427.157-.578.266l-.824-.099.44-3.58h3.778v.782h-3.039l-.256 2.144h.043c.149-.118.336-.216.561-.294.225-.078.459-.117.703-.117.445 0 .841.106 1.189.319.351.211.625.5.824.867.202.367.302.786.302 1.257 0 .464-.104.878-.312 1.243-.206.362-.49.648-.853.859-.362.208-.774.313-1.235.313ZM321.059 133.227h1.051l2.471 6.037h.086l2.471-6.037h1.051v7.273h-.824v-5.525h-.071l-2.272 5.525h-.796l-2.272-5.525h-.071v5.525h-.824v-7.273Z" fill="#484A54"/>
    </g>
    <g filter="url(#c)">
      <rect x="99" y="196" width="302" height="56" rx="6" fill="#fff"/>
      <path d="M121 212.5h94.5v23H121c-3.038 0-5.5-2.462-5.5-5.5v-12c0-3.038 2.462-5.5 5.5-5.5Z" fill="#008FF8" fill-opacity=".2"/>
      <path d="M130.017 224.364c0 .767-.138 1.43-.415 1.988-.277.559-.657.99-1.14 1.293-.483.303-1.035.454-1.655.454-.62 0-1.172-.151-1.655-.454-.483-.303-.863-.734-1.14-1.293-.277-.558-.415-1.221-.415-1.988 0-.767.138-1.43.415-1.989.277-.559.657-.99 1.14-1.293.483-.303 1.035-.454 1.655-.454.62 0 1.172.151 1.655.454.483.303.863.734 1.14 1.293.277.559.415 1.222.415 1.989Zm-.852 0c0-.63-.105-1.162-.316-1.595-.209-.433-.491-.761-.849-.983-.355-.223-.753-.334-1.193-.334-.44 0-.839.111-1.197.334-.355.222-.638.55-.849.983-.208.433-.312.965-.312 1.595 0 .629.104 1.161.312 1.594.211.433.494.761.849.984.358.222.757.334 1.197.334.44 0 .838-.112 1.193-.334.358-.223.64-.551.849-.984.211-.433.316-.965.316-1.594ZM131.384 228v-5.455h.81v.824h.057c.099-.27.279-.489.54-.657.26-.168.554-.252.88-.252.062 0 .139.001.231.004.092.002.162.006.21.01v.853c-.029-.007-.094-.018-.196-.032-.099-.017-.204-.025-.316-.025-.265 0-.502.056-.71.167-.206.109-.369.26-.49.454-.118.192-.178.411-.178.657V228h-.838ZM137.141 230.159c-.405 0-.753-.052-1.044-.156-.292-.102-.534-.237-.728-.405-.192-.166-.345-.343-.458-.533l.667-.468c.076.099.172.213.288.341.116.13.274.242.476.337.203.097.47.145.799.145.44 0 .803-.106 1.09-.319.286-.213.43-.547.43-1.002v-1.108h-.071c-.062.1-.15.223-.263.37-.111.144-.272.273-.483.387-.208.111-.49.167-.845.167-.441 0-.836-.104-1.186-.313-.348-.208-.624-.511-.828-.909-.201-.398-.302-.881-.302-1.449 0-.558.099-1.045.295-1.459.197-.417.47-.739.82-.966.351-.23.756-.345 1.215-.345.355 0 .637.06.845.178.211.116.372.249.483.398.114.146.201.267.263.362h.085v-.867h.81v5.611c0 .469-.107.85-.32 1.144-.211.296-.495.512-.852.65-.355.139-.751.209-1.186.209Zm-.029-2.997c.336 0 .621-.077.853-.231.232-.154.408-.375.529-.664.12-.289.181-.634.181-1.037 0-.393-.059-.74-.178-1.04-.118-.301-.293-.537-.525-.707-.232-.171-.519-.256-.86-.256-.355 0-.651.09-.887.27-.235.18-.411.422-.53.725-.116.303-.174.639-.174 1.008 0 .379.06.714.178 1.005.121.289.298.516.533.682.236.163.53.245.88.245ZM142.638 228.128c-.346 0-.659-.065-.941-.195-.282-.133-.506-.324-.671-.572-.166-.251-.249-.554-.249-.909 0-.313.062-.566.185-.76.123-.197.287-.351.493-.462.206-.111.434-.194.682-.248.251-.057.503-.102.757-.135.331-.043.6-.075.806-.096.208-.024.36-.063.454-.117.097-.055.146-.15.146-.285v-.028c0-.35-.096-.623-.288-.817-.189-.194-.477-.291-.863-.291-.4 0-.714.088-.941.263-.227.175-.387.362-.479.561l-.796-.284c.142-.332.332-.59.569-.774.239-.187.499-.318.781-.391.284-.076.563-.114.838-.114.175 0 .376.022.604.064.229.041.451.125.664.252.215.128.394.321.536.579.142.258.213.604.213 1.037V228h-.838v-.739h-.043c-.057.119-.151.245-.284.38-.132.135-.309.25-.529.345-.22.094-.489.142-.806.142Zm.128-.753c.331 0 .611-.065.838-.195.229-.131.402-.299.518-.505.119-.206.178-.422.178-.649v-.767c-.036.042-.114.081-.235.117-.118.033-.255.062-.412.088-.153.024-.304.045-.45.064-.145.017-.262.031-.352.043-.218.028-.421.075-.611.139-.187.061-.338.155-.454.28-.114.123-.171.291-.171.504 0 .292.108.512.323.661.218.147.494.22.828.22ZM147.506 224.719V228h-.838v-5.455h.809v.853h.071c.128-.277.322-.5.583-.668.26-.17.596-.256 1.008-.256.369 0 .693.076.97.228.277.149.492.376.646.682.154.303.231.686.231 1.15V228h-.838v-3.409c0-.429-.112-.762-.334-1.002-.223-.241-.528-.362-.916-.362-.268 0-.507.058-.718.174-.208.116-.373.286-.493.508-.121.223-.181.493-.181.81ZM152.517 228v-5.455h.838V228h-.838Zm.426-6.364c-.163 0-.304-.055-.422-.167-.116-.111-.174-.245-.174-.401 0-.156.058-.29.174-.401.118-.111.259-.167.422-.167.164 0 .303.056.419.167.119.111.178.245.178.401 0 .156-.059.29-.178.401-.116.112-.255.167-.419.167ZM157.106 228.114c-.511 0-.952-.121-1.321-.363-.369-.241-.653-.574-.852-.997-.199-.424-.298-.908-.298-1.453 0-.554.101-1.043.305-1.466.206-.427.492-.759.859-.998.37-.242.8-.363 1.293-.363.383 0 .729.071 1.037.214.308.142.56.34.756.596.197.256.319.554.366.895h-.838c-.064-.249-.206-.469-.426-.661-.218-.194-.512-.291-.881-.291-.327 0-.613.085-.859.256-.244.168-.435.406-.572.714-.135.305-.202.664-.202 1.076 0 .421.066.788.198 1.101.135.312.325.555.569.728.246.172.535.259.866.259.218 0 .416-.038.593-.114.178-.076.328-.184.451-.327.123-.142.211-.312.263-.511h.838c-.047.322-.165.612-.352.87-.184.256-.429.459-.735.611-.303.149-.655.224-1.058.224ZM164.07 226.011l-.014-1.037h.17l2.386-2.429h1.037l-2.542 2.571h-.071l-.966.895Zm-.781 1.989v-7.273h.838V228h-.838Zm3.466 0-2.131-2.699.596-.582 2.6 3.281h-1.065ZM170.79 228.114c-.525 0-.979-.116-1.36-.348-.378-.235-.671-.561-.877-.98-.203-.422-.305-.912-.305-1.471 0-.558.102-1.051.305-1.477.206-.428.493-.762.86-1.001.369-.242.8-.363 1.292-.363.284 0 .565.048.842.142.277.095.529.249.756.462.227.211.409.49.544.838.134.348.202.777.202 1.286v.355h-4.205v-.725h3.353c0-.307-.062-.582-.185-.823-.121-.242-.294-.433-.518-.572-.223-.14-.486-.21-.789-.21-.334 0-.622.083-.866.249-.242.163-.428.376-.558.639-.13.263-.195.545-.195.845v.483c0 .412.071.761.213 1.048.144.284.344.5.6.65.256.146.553.22.891.22.221 0 .419-.031.597-.093.18-.063.335-.158.465-.284.13-.127.231-.286.302-.475l.81.227c-.086.274-.229.516-.43.724-.201.206-.45.367-.746.483-.296.114-.628.171-.998.171ZM174.698 230.045c-.143 0-.269-.011-.38-.035-.112-.021-.189-.043-.231-.064l.213-.739c.203.052.383.071.54.057.156-.014.294-.084.415-.209.123-.123.236-.323.337-.6l.157-.427-2.017-5.483h.909l1.505 4.347h.057l1.506-4.347h.909l-2.315 6.25c-.105.282-.234.515-.387.7-.154.187-.333.326-.537.416-.201.089-.428.134-.681.134ZM180.96 228l-1.662-5.455h.881l1.179 4.177h.057l1.164-4.177h.895l1.151 4.162h.057l1.179-4.162h.88L185.079 228h-.824l-1.193-4.19h-.085l-1.193 4.19h-.824ZM189.88 228.114c-.493 0-.925-.118-1.297-.352-.369-.234-.658-.562-.866-.984-.206-.421-.309-.913-.309-1.477 0-.568.103-1.064.309-1.488.208-.424.497-.753.866-.987.372-.234.804-.352 1.297-.352.492 0 .923.118 1.292.352.372.234.661.563.867.987.208.424.312.92.312 1.488 0 .564-.104 1.056-.312 1.477-.206.422-.495.75-.867.984-.369.234-.8.352-1.292.352Zm0-.753c.374 0 .681-.096.923-.288.241-.192.42-.444.536-.756.116-.313.174-.651.174-1.016 0-.364-.058-.704-.174-1.019-.116-.315-.295-.569-.536-.764-.242-.194-.549-.291-.923-.291-.375 0-.682.097-.924.291-.241.195-.42.449-.536.764-.116.315-.174.655-.174 1.019 0 .365.058.703.174 1.016.116.312.295.564.536.756.242.192.549.288.924.288ZM193.63 228v-5.455h.81v.824h.057c.099-.27.279-.489.54-.657.26-.168.554-.252.88-.252.062 0 .139.001.231.004.093.002.162.006.21.01v.853c-.029-.007-.094-.018-.196-.032-.099-.017-.204-.025-.316-.025-.265 0-.502.056-.71.167-.206.109-.369.26-.49.454-.118.192-.178.411-.178.657V228h-.838ZM199.245 228.114c-.455 0-.856-.115-1.204-.345-.348-.232-.62-.559-.817-.98-.196-.424-.295-.924-.295-1.502 0-.573.099-1.07.295-1.492.197-.421.47-.746.82-.976.351-.23.756-.345 1.215-.345.355 0 .636.06.842.178.208.116.367.249.475.398.112.146.198.267.26.362h.071v-2.685h.838V228h-.81v-.838h-.099c-.062.099-.149.225-.263.376-.114.149-.276.283-.487.402-.21.116-.491.174-.841.174Zm.113-.753c.337 0 .621-.088.853-.263.232-.178.408-.423.529-.735.121-.315.181-.678.181-1.09 0-.407-.059-.764-.178-1.069-.118-.308-.293-.547-.525-.717-.232-.173-.519-.26-.86-.26-.355 0-.651.091-.887.274-.235.18-.411.425-.53.735-.116.308-.174.653-.174 1.037 0 .388.06.741.178 1.058.121.315.298.566.533.753.236.184.53.277.88.277ZM207.26 223.767l-.753.213c-.048-.125-.117-.247-.21-.366-.09-.12-.213-.22-.369-.298-.156-.078-.356-.117-.6-.117-.334 0-.612.077-.835.231-.22.151-.33.344-.33.579 0 .208.076.372.227.493.152.121.389.221.711.302l.809.199c.488.118.851.299 1.09.543.24.242.359.553.359.934 0 .313-.09.592-.27.838-.177.246-.426.441-.746.583-.319.142-.691.213-1.115.213-.556 0-1.016-.121-1.381-.363-.365-.241-.595-.594-.692-1.058l.795-.199c.076.294.219.514.43.661.213.147.491.22.834.22.391 0 .701-.083.931-.249.232-.168.348-.369.348-.603 0-.19-.067-.348-.199-.476-.133-.13-.336-.227-.611-.291l-.909-.213c-.5-.119-.867-.302-1.101-.551-.232-.251-.348-.564-.348-.941 0-.308.086-.58.259-.817.175-.236.413-.422.714-.557.303-.135.646-.203 1.03-.203.54 0 .963.119 1.271.356.31.236.53.549.661.937Z" fill="#484A54"/>
      <path d="M121 212.5h94.5v23H121c-3.038 0-5.5-2.462-5.5-5.5v-12c0-3.038 2.462-5.5 5.5-5.5Z" stroke="#008FF8"/>
      <g filter="url(#d)">
        <path fill="#fff" d="M216 212h85v24h-85z"/>
        <path d="M224.881 228v-7.273h2.457c.571 0 1.037.103 1.399.309.365.204.635.48.81.828.175.348.263.736.263 1.164 0 .429-.088.818-.263 1.169-.173.35-.44.629-.803.838-.362.206-.826.309-1.392.309h-1.761v-.782h1.733c.391 0 .704-.067.941-.202s.408-.317.515-.547c.109-.232.163-.493.163-.785 0-.291-.054-.551-.163-.781-.107-.229-.279-.409-.518-.54-.24-.132-.557-.198-.952-.198h-1.548V228h-.881ZM232.72 228.128c-.346 0-.659-.065-.941-.195-.282-.133-.506-.324-.671-.572-.166-.251-.249-.554-.249-.909 0-.313.062-.566.185-.76.123-.197.287-.351.493-.462.206-.111.434-.194.682-.248.251-.057.503-.102.757-.135.331-.043.6-.075.806-.096.208-.024.36-.063.454-.117.097-.055.146-.15.146-.285v-.028c0-.35-.096-.623-.288-.817-.189-.194-.477-.291-.863-.291-.4 0-.713.088-.941.263-.227.175-.387.362-.479.561l-.796-.284c.142-.332.332-.59.569-.774.239-.187.499-.318.781-.391.284-.076.563-.114.838-.114.175 0 .376.022.604.064.229.041.451.125.664.252.215.128.394.321.536.579.142.258.213.604.213 1.037V228h-.838v-.739h-.043c-.057.119-.151.245-.284.38-.132.135-.309.25-.529.345-.22.094-.489.142-.806.142Zm.128-.753c.331 0 .611-.065.838-.195.23-.131.402-.299.518-.505.119-.206.178-.422.178-.649v-.767c-.036.042-.114.081-.234.117-.119.033-.256.062-.412.088-.154.024-.305.045-.451.064-.145.017-.262.031-.352.043-.218.028-.421.075-.611.139-.187.061-.338.155-.454.28-.114.123-.171.291-.171.504 0 .292.108.512.323.661.218.147.494.22.828.22ZM236.75 228v-5.455h.838V228h-.838Zm.426-6.364c-.164 0-.304-.055-.423-.167-.116-.111-.174-.245-.174-.401 0-.156.058-.29.174-.401.119-.111.259-.167.423-.167.163 0 .303.056.419.167.118.111.177.245.177.401 0 .156-.059.29-.177.401-.116.112-.256.167-.419.167ZM241.182 228.114c-.454 0-.855-.115-1.203-.345-.348-.232-.621-.559-.817-.98-.197-.424-.295-.924-.295-1.502 0-.573.098-1.07.295-1.492.196-.421.47-.746.82-.976.35-.23.755-.345 1.215-.345.355 0 .635.06.841.178.209.116.367.249.476.398.111.146.198.267.259.362h.071v-2.685h.838V228h-.809v-.838h-.1c-.061.099-.149.225-.263.376-.113.149-.275.283-.486.402-.211.116-.491.174-.842.174Zm.114-.753c.336 0 .62-.088.852-.263.232-.178.409-.423.529-.735.121-.315.181-.678.181-1.09 0-.407-.059-.764-.177-1.069-.118-.308-.294-.547-.526-.717-.232-.173-.518-.26-.859-.26-.355 0-.651.091-.888.274-.234.18-.411.425-.529.735-.116.308-.174.653-.174 1.037 0 .388.059.741.178 1.058.12.315.298.566.532.753.237.184.531.277.881.277ZM248.927 226.011l-.014-1.037h.171l2.386-2.429h1.037l-2.543 2.571h-.071l-.966.895Zm-.781 1.989v-7.273h.838V228h-.838Zm3.466 0-2.131-2.699.597-.582 2.599 3.281h-1.065ZM255.648 228.114c-.526 0-.979-.116-1.36-.348-.379-.235-.671-.561-.877-.98-.204-.422-.306-.912-.306-1.471 0-.558.102-1.051.306-1.477.206-.428.492-.762.859-1.001.369-.242.8-.363 1.293-.363.284 0 .564.048.841.142.277.095.529.249.757.462.227.211.408.49.543.838.135.348.202.777.202 1.286v.355h-4.204v-.725h3.352c0-.307-.061-.582-.185-.823-.12-.242-.293-.433-.518-.572-.223-.14-.485-.21-.788-.21-.334 0-.623.083-.867.249-.241.163-.427.376-.557.639-.131.263-.196.545-.196.845v.483c0 .412.071.761.213 1.048.145.284.345.5.601.65.255.146.552.22.891.22.22 0 .419-.031.596-.093.18-.063.335-.158.466-.284.13-.127.231-.286.302-.475l.809.227c-.085.274-.228.516-.429.724-.202.206-.45.367-.746.483-.296.114-.629.171-.998.171ZM259.555 230.045c-.142 0-.269-.011-.38-.035-.111-.021-.188-.043-.231-.064l.213-.739c.204.052.384.071.54.057.156-.014.295-.084.416-.209.123-.123.235-.323.337-.6l.156-.427-2.017-5.483h.909l1.506 4.347h.057l1.505-4.347h.909l-2.315 6.25c-.104.282-.233.515-.387.7-.154.187-.333.326-.536.416-.201.089-.429.134-.682.134ZM265.817 228l-1.661-5.455h.88l1.179 4.177h.057l1.165-4.177h.895l1.15 4.162h.057l1.179-4.162h.881L269.937 228h-.824l-1.193-4.19h-.085l-1.194 4.19h-.824ZM274.737 228.114c-.492 0-.924-.118-1.296-.352-.369-.234-.658-.562-.867-.984-.206-.421-.309-.913-.309-1.477 0-.568.103-1.064.309-1.488.209-.424.498-.753.867-.987.372-.234.804-.352 1.296-.352s.923.118 1.293.352c.371.234.66.563.866.987.208.424.313.92.313 1.488 0 .564-.105 1.056-.313 1.477-.206.422-.495.75-.866.984-.37.234-.801.352-1.293.352Zm0-.753c.374 0 .682-.096.923-.288.242-.192.421-.444.537-.756.116-.313.174-.651.174-1.016 0-.364-.058-.704-.174-1.019-.116-.315-.295-.569-.537-.764-.241-.194-.549-.291-.923-.291s-.682.097-.923.291c-.242.195-.42.449-.536.764-.116.315-.174.655-.174 1.019 0 .365.058.703.174 1.016.116.312.294.564.536.756.241.192.549.288.923.288ZM278.488 228v-5.455h.81v.824h.056c.1-.27.28-.489.54-.657.261-.168.554-.252.881-.252.061 0 .138.001.231.004.092.002.162.006.209.01v.853c-.028-.007-.093-.018-.195-.032-.1-.017-.205-.025-.316-.025-.265 0-.502.056-.71.167-.206.109-.37.26-.49.454-.119.192-.178.411-.178.657V228h-.838ZM284.102 228.114c-.454 0-.856-.115-1.204-.345-.348-.232-.62-.559-.816-.98-.197-.424-.295-.924-.295-1.502 0-.573.098-1.07.295-1.492.196-.421.47-.746.82-.976.35-.23.755-.345 1.214-.345.356 0 .636.06.842.178.208.116.367.249.476.398.111.146.198.267.259.362h.071v-2.685h.838V228h-.809v-.838h-.1c-.061.099-.149.225-.263.376-.113.149-.275.283-.486.402-.211.116-.491.174-.842.174Zm.114-.753c.336 0 .62-.088.852-.263.232-.178.409-.423.529-.735.121-.315.181-.678.181-1.09 0-.407-.059-.764-.177-1.069-.119-.308-.294-.547-.526-.717-.232-.173-.518-.26-.859-.26-.355 0-.651.091-.888.274-.234.18-.411.425-.529.735-.116.308-.174.653-.174 1.037 0 .388.059.741.178 1.058.12.315.298.566.532.753.237.184.531.277.881.277ZM292.117 223.767l-.753.213c-.047-.125-.117-.247-.209-.366-.09-.12-.213-.22-.369-.298-.157-.078-.357-.117-.601-.117-.333 0-.612.077-.834.231-.22.151-.33.344-.33.579 0 .208.075.372.227.493.151.121.388.221.71.302l.81.199c.487.118.851.299 1.09.543.239.242.359.553.359.934 0 .313-.09.592-.27.838-.178.246-.426.441-.746.583-.32.142-.691.213-1.115.213-.556 0-1.017-.121-1.381-.363-.365-.241-.596-.594-.693-1.058l.796-.199c.075.294.219.514.429.661.213.147.491.22.835.22.39 0 .7-.083.93-.249.232-.168.348-.369.348-.603 0-.19-.066-.348-.199-.476-.132-.13-.336-.227-.611-.291l-.909-.213c-.499-.119-.866-.302-1.1-.551-.232-.251-.348-.564-.348-.941 0-.308.086-.58.259-.817.175-.236.413-.422.714-.557.303-.135.646-.203 1.029-.203.54 0 .964.119 1.272.356.31.236.53.549.66.937Z" fill="#484A54"/>
      </g>
      <g filter="url(#e)">
        <path d="M301 212h78c3.314 0 6 2.686 6 6v12c0 3.314-2.686 6-6 6h-78v-24Z" fill="#fff"/>
        <path d="M309.881 228v-7.273h2.457c.571 0 1.037.103 1.399.309.365.204.635.48.81.828.175.348.263.736.263 1.164 0 .429-.088.818-.263 1.169-.173.35-.44.629-.803.838-.362.206-.826.309-1.392.309h-1.761v-.781h1.733c.391 0 .704-.068.941-.203s.408-.317.515-.547c.109-.232.163-.493.163-.785 0-.291-.054-.551-.163-.781-.107-.229-.279-.409-.518-.54-.24-.132-.557-.198-.952-.198h-1.548V228h-.881ZM316.229 228v-7.273h.88v6.492h3.381V228h-4.261ZM322.611 228h-.923l2.67-7.273h.909l2.671 7.273h-.924l-2.173-6.122h-.057L322.611 228Zm.341-2.841h3.721v.781h-3.721v-.781ZM332.55 226.011l-.014-1.037h.171l2.386-2.429h1.037l-2.543 2.571h-.071l-.966.895Zm-.781 1.989v-7.273h.838V228h-.838Zm3.466 0-2.131-2.699.597-.582L336.3 228h-1.065ZM339.271 228.114c-.526 0-.979-.116-1.36-.348-.379-.235-.671-.561-.877-.98-.204-.422-.306-.912-.306-1.471 0-.558.102-1.051.306-1.477.206-.428.492-.762.859-1.001.369-.242.8-.363 1.293-.363.284 0 .564.048.841.142.277.095.529.249.757.462.227.211.408.49.543.838.135.348.202.777.202 1.286v.355h-4.204v-.725h3.352c0-.307-.061-.582-.184-.823-.121-.242-.294-.433-.519-.572-.222-.14-.485-.21-.788-.21-.334 0-.623.083-.867.249-.241.163-.427.376-.557.639-.13.263-.196.545-.196.845v.483c0 .412.071.761.213 1.048.145.284.345.5.601.65.255.146.552.22.891.22.22 0 .419-.031.597-.093.179-.063.335-.158.465-.284.13-.127.231-.286.302-.475l.809.227c-.085.274-.228.516-.429.724-.202.206-.45.367-.746.483-.296.114-.629.171-.998.171ZM343.178 230.045c-.142 0-.269-.011-.38-.035-.111-.021-.188-.043-.231-.064l.213-.739c.204.052.384.071.54.057.156-.014.295-.084.416-.209.123-.123.235-.323.337-.6l.156-.427-2.017-5.483h.909l1.506 4.347h.057l1.505-4.347h.91l-2.316 6.25c-.104.282-.233.515-.387.7-.154.187-.332.326-.536.416-.201.089-.429.134-.682.134ZM349.441 228l-1.662-5.455h.88l1.179 4.177h.057l1.165-4.177h.895l1.15 4.162h.057l1.179-4.162h.881L353.56 228h-.824l-1.193-4.19h-.085l-1.194 4.19h-.823ZM358.36 228.114c-.492 0-.924-.118-1.296-.352-.369-.234-.658-.562-.867-.984-.206-.421-.309-.913-.309-1.477 0-.568.103-1.064.309-1.488.209-.424.498-.753.867-.987.372-.234.804-.352 1.296-.352.493 0 .923.118 1.293.352.371.234.66.563.866.987.209.424.313.92.313 1.488 0 .564-.104 1.056-.313 1.477-.206.422-.495.75-.866.984-.37.234-.8.352-1.293.352Zm0-.753c.374 0 .682-.096.923-.288.242-.192.421-.444.537-.756.116-.313.174-.651.174-1.016 0-.364-.058-.704-.174-1.019-.116-.315-.295-.569-.537-.764-.241-.194-.549-.291-.923-.291s-.682.097-.923.291c-.242.195-.42.449-.536.764-.116.315-.174.655-.174 1.019 0 .365.058.703.174 1.016.116.312.294.564.536.756.241.192.549.288.923.288ZM362.111 228v-5.455h.81v.824h.056c.1-.27.28-.489.54-.657.261-.168.554-.252.881-.252.061 0 .138.001.231.004.092.002.162.006.209.01v.853c-.028-.007-.093-.018-.195-.032-.099-.017-.205-.025-.316-.025-.265 0-.502.056-.71.167-.206.109-.37.26-.49.454-.119.192-.178.411-.178.657V228h-.838ZM367.725 228.114c-.454 0-.856-.115-1.204-.345-.348-.232-.62-.559-.816-.98-.197-.424-.295-.924-.295-1.502 0-.573.098-1.07.295-1.492.196-.421.47-.746.82-.976.35-.23.755-.345 1.215-.345.355 0 .635.06.841.178.208.116.367.249.476.398.111.147.198.267.259.362h.071v-2.685h.838V228h-.809v-.838h-.1c-.061.099-.149.225-.263.376-.113.15-.275.283-.486.402-.211.116-.491.174-.842.174Zm.114-.753c.336 0 .62-.088.852-.263.232-.178.409-.423.529-.735.121-.315.181-.678.181-1.09 0-.407-.059-.764-.177-1.069-.118-.308-.294-.547-.526-.717-.232-.173-.518-.26-.859-.26-.355 0-.651.091-.888.274-.234.18-.411.425-.529.735-.116.308-.174.653-.174 1.037 0 .388.059.741.178 1.058.12.315.298.566.532.753.237.184.531.277.881.277ZM375.74 223.767l-.753.213c-.047-.125-.117-.247-.209-.366-.09-.12-.213-.22-.369-.298-.157-.078-.357-.117-.601-.117-.333 0-.612.077-.834.231-.22.151-.33.344-.33.579 0 .208.075.372.227.493.151.121.388.222.71.302l.81.199c.487.118.851.299 1.09.543.239.242.359.553.359.934 0 .313-.09.592-.27.838-.178.246-.426.441-.746.583-.32.142-.691.213-1.115.213-.556 0-1.017-.121-1.381-.363-.365-.241-.596-.594-.693-1.058l.796-.199c.075.294.219.514.429.661.213.147.492.22.835.22.39 0 .701-.083.93-.249.232-.168.348-.369.348-.603 0-.19-.066-.348-.199-.476-.132-.13-.336-.227-.61-.291l-.91-.213c-.499-.119-.866-.302-1.1-.551-.232-.251-.348-.564-.348-.941 0-.308.086-.58.259-.817.175-.236.413-.422.714-.557.303-.135.646-.203 1.029-.203.54 0 .964.119 1.272.356.31.236.53.549.66.937Z" fill="#484A54"/>
      </g>
    </g>
  </g>
  <defs>
    <filter id="b" x="-9" y="-2" width="387" height="272" filterUnits="userSpaceOnUse" color-interpolation-filters="sRGB">
      <feFlood flood-opacity="0" result="BackgroundImageFix"/>
      <feColorMatrix in="SourceAlpha" values="0 0 0 0 0 0 0 0 0 0 0 0 0 0 0 0 0 0 127 0" result="hardAlpha"/>
      <feOffset dy="8"/>
      <feGaussianBlur stdDeviation="16"/>
      <feComposite in2="hardAlpha" operator="out"/>
      <feColorMatrix values="0 0 0 0 0.0980392 0 0 0 0 0.105882 0 0 0 0 0.137255 0 0 0 0.08 0"/>
      <feBlend in2="BackgroundImageFix" result="effect1_dropShadow_245_42170"/>
      <feBlend in="SourceGraphic" in2="effect1_dropShadow_245_42170" result="shape"/>
    </filter>
    <filter id="c" x="67" y="172" width="366" height="120" filterUnits="userSpaceOnUse" color-interpolation-filters="sRGB">
      <feFlood flood-opacity="0" result="BackgroundImageFix"/>
      <feColorMatrix in="SourceAlpha" values="0 0 0 0 0 0 0 0 0 0 0 0 0 0 0 0 0 0 127 0" result="hardAlpha"/>
      <feOffset dy="8"/>
      <feGaussianBlur stdDeviation="16"/>
      <feComposite in2="hardAlpha" operator="out"/>
      <feColorMatrix values="0 0 0 0 0.0980392 0 0 0 0 0.105882 0 0 0 0 0.137255 0 0 0 0.08 0"/>
      <feBlend in2="BackgroundImageFix" result="effect1_dropShadow_245_42170"/>
      <feBlend in="SourceGraphic" in2="effect1_dropShadow_245_42170" result="shape"/>
    </filter>
    <filter id="d" x="216" y="212" width="85" height="24" filterUnits="userSpaceOnUse" color-interpolation-filters="sRGB">
      <feFlood flood-opacity="0" result="BackgroundImageFix"/>
      <feBlend in="SourceGraphic" in2="BackgroundImageFix" result="shape"/>
      <feColorMatrix in="SourceAlpha" values="0 0 0 0 0 0 0 0 0 0 0 0 0 0 0 0 0 0 127 0" result="hardAlpha"/>
      <feOffset dy="1"/>
      <feComposite in2="hardAlpha" operator="arithmetic" k2="-1" k3="1"/>
      <feColorMatrix values="0 0 0 0 0.878431 0 0 0 0 0.882353 0 0 0 0 0.913725 0 0 0 1 0"/>
      <feBlend in2="shape" result="effect1_innerShadow_245_42170"/>
      <feColorMatrix in="SourceAlpha" values="0 0 0 0 0 0 0 0 0 0 0 0 0 0 0 0 0 0 127 0" result="hardAlpha"/>
      <feOffset dy="-1"/>
      <feComposite in2="hardAlpha" operator="arithmetic" k2="-1" k3="1"/>
      <feColorMatrix values="0 0 0 0 0.878431 0 0 0 0 0.882353 0 0 0 0 0.913725 0 0 0 1 0"/>
      <feBlend in2="effect1_innerShadow_245_42170" result="effect2_innerShadow_245_42170"/>
      <feColorMatrix in="SourceAlpha" values="0 0 0 0 0 0 0 0 0 0 0 0 0 0 0 0 0 0 127 0" result="hardAlpha"/>
      <feOffset dx="-1"/>
      <feComposite in2="hardAlpha" operator="arithmetic" k2="-1" k3="1"/>
      <feColorMatrix values="0 0 0 0 0.878431 0 0 0 0 0.882353 0 0 0 0 0.913725 0 0 0 1 0"/>
      <feBlend in2="effect2_innerShadow_245_42170" result="effect3_innerShadow_245_42170"/>
    </filter>
    <filter id="e" x="301" y="212" width="84" height="24" filterUnits="userSpaceOnUse" color-interpolation-filters="sRGB">
      <feFlood flood-opacity="0" result="BackgroundImageFix"/>
      <feBlend in="SourceGraphic" in2="BackgroundImageFix" result="shape"/>
      <feColorMatrix in="SourceAlpha" values="0 0 0 0 0 0 0 0 0 0 0 0 0 0 0 0 0 0 127 0" result="hardAlpha"/>
      <feOffset dy="1"/>
      <feComposite in2="hardAlpha" operator="arithmetic" k2="-1" k3="1"/>
      <feColorMatrix values="0 0 0 0 0.878431 0 0 0 0 0.882353 0 0 0 0 0.913725 0 0 0 1 0"/>
      <feBlend in2="shape" result="effect1_innerShadow_245_42170"/>
      <feColorMatrix in="SourceAlpha" values="0 0 0 0 0 0 0 0 0 0 0 0 0 0 0 0 0 0 127 0" result="hardAlpha"/>
      <feOffset dy="-1"/>
      <feComposite in2="hardAlpha" operator="arithmetic" k2="-1" k3="1"/>
      <feColorMatrix values="0 0 0 0 0.878431 0 0 0 0 0.882353 0 0 0 0 0.913725 0 0 0 1 0"/>
      <feBlend in2="effect1_innerShadow_245_42170" result="effect2_innerShadow_245_42170"/>
      <feColorMatrix in="SourceAlpha" values="0 0 0 0 0 0 0 0 0 0 0 0 0 0 0 0 0 0 127 0" result="hardAlpha"/>
      <feOffset dx="-1"/>
      <feComposite in2="hardAlpha" operator="arithmetic" k2="-1" k3="1"/>
      <feColorMatrix values="0 0 0 0 0.878431 0 0 0 0 0.882353 0 0 0 0 0.913725 0 0 0 1 0"/>
      <feBlend in2="effect2_innerShadow_245_42170" result="effect3_innerShadow_245_42170"/>
    </filter>
    <clipPath id="a">
      <path fill="#fff" d="M0 0h431v280H0z"/>
    </clipPath>
  </defs>
</svg>
