<svg width="430" height="280" fill="none" xmlns="http://www.w3.org/2000/svg">
  <g clip-path="url(#a)">
    <path d="M141.828 279.988C218.827 278.973 280 214.884 280 137.915V3.4479C280 1.52114 278.478 0 276.551 0h-86.434c-1.927 0-3.449 1.52114-3.449 3.4479v9.6338H96.7855c-1.9275 0-3.4492 1.521-3.4492 3.4478V139.943H3.45363c-1.9275 0-3.5505649 1.623-3.4491173 3.549C1.83057 219.853 64.7282 281.002 141.828 279.988Z" fill="#FFF3D9"/>
    <g opacity=".8" filter="url(#b)">
      <rect x="28" y="28" width="277" height="142" rx="6" fill="#fff"/>
      <path d="M53.8687 52.3829h-2.1776c-.0397-.2817-.1209-.532-.2436-.7507-.1226-.2221-.28-.411-.4723-.5668-.1922-.1558-.4143-.2751-.6662-.3579-.2485-.0829-.5187-.1243-.8103-.1243-.527 0-.9861.1309-1.3772.3927-.3911.2585-.6943.6364-.9098 1.1335-.2154.4939-.3231 1.0938-.3231 1.7998 0 .7258.1077 1.3357.3231 1.8295.2188.4938.5237.8667.9148 1.1186.3911.2519.8435.3779 1.3573.3779.2883 0 .5551-.0382.8004-.1144.2486-.0762.469-.1873.6612-.3331.1922-.1491.3513-.3298.4773-.5419.1292-.2121.2187-.4541.2684-.7258l2.1776.0099c-.0563.4673-.1972.9181-.4226 1.3523-.2221.4308-.522.817-.8998 1.1584-.3746.338-.822.6065-1.3424.8053-.517.1956-1.102.2934-1.7549.2934-.9082 0-1.7202-.2055-2.4361-.6165-.7126-.411-1.2761-1.0059-1.6904-1.7848-.411-.7789-.6164-1.7218-.6164-2.8288 0-1.1104.2088-2.055.6264-2.8338.4176-.7789.9844-1.3722 1.7003-1.7799.7159-.411 1.5213-.6165 2.4162-.6165.5899 0 1.1368.0829 1.6406.2486.5071.1657.9562.4077 1.3473.7259.3911.3148.7093.701.9545 1.1584.2486.4573.4077.981.4773 1.571ZM58.8229 59.1492c-.7723 0-1.4401-.164-2.0036-.4922-.5601-.3314-.9926-.7921-1.2975-1.3821-.305-.5933-.4574-1.281-.4574-2.0632 0-.7888.1524-1.4782.4574-2.0682.3049-.5932.7374-1.0539 1.2975-1.3821.5635-.3314 1.2313-.4971 2.0036-.4971.7722 0 1.4384.1657 1.9986.4971.5634.3282.9976.7889 1.3025 1.3821.3049.59.4574 1.2794.4574 2.0682 0 .7822-.1525 1.4699-.4574 2.0632-.3049.59-.7391 1.0507-1.3025 1.3821-.5602.3282-1.2264.4922-1.9986.4922Zm.0099-1.6406c.3514 0 .6447-.0994.88-.2983.2353-.2022.4126-.4773.532-.8253.1226-.348.1839-.7441.1839-1.1882 0-.4441-.0613-.8402-.1839-1.1882-.1194-.348-.2967-.6231-.532-.8253-.2353-.2022-.5286-.3033-.88-.3033-.3546 0-.6529.1011-.8949.3033-.2386.2022-.4192.4773-.5419.8253-.1193.348-.1789.7441-.1789 1.1882 0 .4441.0596.8402.1789 1.1882.1227.348.3033.6231.5419.8253.242.1989.5403.2983.8949.2983ZM63.9585 59.0001v-7.6364h2.0185v1.3473h.0895c.1591-.4474.4242-.8004.7954-1.0589.3713-.2586.8154-.3878 1.3324-.3878.5237 0 .9695.1309 1.3374.3927.3679.2585.6132.6099.7358 1.054h.0795c.1558-.4375.4375-.7872.8452-1.049.411-.2652.8965-.3977 1.4567-.3977.7126 0 1.2909.227 1.7351.6811.4474.4507.6711 1.0904.6711 1.919v5.1357h-2.1129V54.282c0-.4242-.1127-.7424-.3381-.9545-.2253-.2121-.5071-.3182-.8451-.3182-.3845 0-.6845.1226-.8999.3679-.2154.2419-.3231.5618-.3231.9595v4.6634h-2.0533v-4.7628c0-.3745-.1077-.6728-.3232-.8949-.2121-.2221-.4922-.3331-.8402-.3331-.2353 0-.4474.0597-.6363.179-.1856.116-.3331.28-.4425.4922-.1094.2088-.1641.454-.1641.7358v4.5838h-2.1179ZM76.7281 61.8637v-10.5h2.088v1.2827h.0945c.0928-.2055.227-.4143.4027-.6264.179-.2155.411-.3945.696-.537.2884-.1458.6463-.2187 1.0739-.2187.5568 0 1.0705.1458 1.5412.4375.4706.2883.8468.7242 1.1285 1.3075.2818.58.4226 1.3075.4226 2.1825 0 .8518-.1375 1.5711-.4126 2.1577-.2718.5833-.643 1.0258-1.1137 1.3274-.4673.2983-.991.4475-1.571.4475-.411 0-.7606-.068-1.049-.2039-.285-.1359-.5187-.3066-.701-.5121-.1823-.2088-.3215-.4192-.4176-.6313h-.0646v4.0866h-2.1179Zm2.0731-6.6818c0 .4541.063.8501.1889 1.1882.126.3381.3083.6016.5469.7905.2387.1856.5287.2784.87.2784.3447 0 .6364-.0945.875-.2834.2387-.1922.4193-.4574.542-.7954.1259-.3414.1889-.7342.1889-1.1783 0-.4408-.0613-.8286-.184-1.1634-.1226-.3347-.3032-.5966-.5419-.7855-.2386-.1889-.5319-.2834-.88-.2834-.3446 0-.6363.0912-.875.2735-.2353.1823-.4159.4408-.5419.7755-.1259.3348-.1889.7292-.1889 1.1833ZM89.0676 59.1492c-.7856 0-1.4617-.1591-2.0284-.4773-.5635-.3215-.9977-.7755-1.3026-1.3622-.3049-.5899-.4574-1.2876-.4574-2.093 0-.7855.1525-1.4749.4574-2.0682.3049-.5933.7341-1.0556 1.2876-1.3871.5569-.3314 1.2098-.4971 1.9588-.4971.5038 0 .9728.0812 1.407.2436.4375.1591.8187.3994 1.1435.7209.3281.3215.5833.7258.7656 1.213.1823.4839.2734 1.0507.2734 1.7003v.5817h-6.4481v-1.3125h4.4545c0-.3049-.0663-.5751-.1988-.8104-.1326-.2353-.3166-.4193-.5519-.5518-.232-.1359-.5021-.2039-.8104-.2039-.3215 0-.6065.0746-.8551.2238-.2452.1458-.4375.343-.5767.5916-.1392.2452-.2104.5187-.2138.8203v1.2479c0 .3778.0697.7043.2089.9794.1425.2751.343.4872.6015.6363.2585.1492.5651.2237.9198.2237.2353 0 .4507-.0331.6463-.0994.1955-.0663.3629-.1657.5021-.2983.1392-.1326.2453-.295.3182-.4872l1.9588.1293c-.0994.4706-.3033.8816-.6115 1.2329-.3049.348-.6994.6198-1.1833.8154-.4805.1922-1.0357.2883-1.6654.2883ZM98.0164 51.3637v1.5909h-4.5987v-1.5909h4.5987Zm-3.5547-1.8295h2.1179v7.1193c0 .1955.0299.348.0895.4574.0597.106.1425.1806.2486.2237.1094.0431.2353.0646.3778.0646.0995 0 .1989-.0083.2983-.0248.0995-.0199.1757-.0348.2287-.0448l.3331 1.576c-.106.0332-.2552.0713-.4474.1144-.1923.0464-.4259.0745-.701.0845-.5104.0199-.9579-.0481-1.3423-.2039-.3812-.1557-.6778-.3977-.89-.7258-.2121-.3281-.3165-.7424-.3132-1.2429v-7.3977ZM99.396 59.0001v-7.6364h2.118v7.6364h-2.118Zm1.064-8.6208c-.315 0-.585-.1044-.8104-.3132-.2221-.2121-.3331-.4657-.3331-.7606 0-.2917.111-.5419.3331-.7507.2254-.2122.4954-.3182.8104-.3182s.583.106.805.3182c.226.2088.338.459.338.7507 0 .2949-.112.5485-.338.7606-.222.2088-.49.3132-.805.3132ZM107.272 51.3637v1.5909h-4.598v-1.5909h4.598Zm-3.554-1.8295h2.117v7.1193c0 .1955.03.348.09.4574.06.106.143.1806.249.2237.109.0431.235.0646.377.0646.1 0 .199-.0083.299-.0248.099-.0199.175-.0348.228-.0448l.333 1.576c-.106.0332-.255.0713-.447.1144-.192.0464-.426.0745-.701.0845-.51.0199-.958-.0481-1.342-.2039-.381-.1557-.678-.3977-.89-.7258-.212-.3281-.317-.7424-.313-1.2429v-7.3977ZM108.652 59.0001v-7.6364h2.118v7.6364h-2.118Zm1.064-8.6208c-.315 0-.585-.1044-.811-.3132-.222-.2121-.333-.4657-.333-.7606 0-.2917.111-.5419.333-.7507.226-.2122.496-.3182.811-.3182.315 0 .583.106.805.3182.226.2088.338.459.338.7507 0 .2949-.112.5485-.338.7606-.222.2088-.49.3132-.805.3132ZM115.917 59.1492c-.773 0-1.44-.164-2.004-.4922-.56-.3314-.993-.7921-1.297-1.3821-.305-.5933-.458-1.281-.458-2.0632 0-.7888.153-1.4782.458-2.0682.304-.5932.737-1.0539 1.297-1.3821.564-.3314 1.231-.4971 2.004-.4971.772 0 1.438.1657 1.998.4971.564.3282.998.7889 1.303 1.3821.305.59.457 1.2794.457 2.0682 0 .7822-.152 1.4699-.457 2.0632-.305.59-.739 1.0507-1.303 1.3821-.56.3282-1.226.4922-1.998.4922Zm.01-1.6406c.351 0 .644-.0994.88-.2983.235-.2022.412-.4773.532-.8253.122-.348.183-.7441.183-1.1882 0-.4441-.061-.8402-.183-1.1882-.12-.348-.297-.6231-.532-.8253-.236-.2022-.529-.3033-.88-.3033-.355 0-.653.1011-.895.3033-.239.2022-.42.4773-.542.8253-.12.348-.179.7441-.179 1.1882 0 .4441.059.8402.179 1.1882.122.348.303.6231.542.8253.242.1989.54.2983.895.2983ZM123.17 54.5853v4.4148h-2.118v-7.6364h2.019v1.3473h.089c.169-.4441.453-.7955.85-1.054.398-.2618.88-.3927 1.447-.3927.53 0 .993.116 1.387.348.395.232.701.5634.92.9943.219.4276.328.938.328 1.5313v4.8622h-2.118v-4.4844c.003-.4673-.116-.8319-.358-1.0938-.242-.2651-.575-.3977-.999-.3977-.285 0-.537.0613-.756.184-.215.1226-.384.3016-.507.5369-.119.232-.18.5121-.184.8402ZM133.041 48.8182h2.655l2.804 6.841h.119l2.804-6.841h2.655v10.1819h-2.088v-6.6272h-.084l-2.635 6.5775h-1.422l-2.635-6.6023h-.085v6.652h-2.088V48.8182ZM147.99 59.1442c-.488 0-.922-.0845-1.303-.2535-.381-.1724-.683-.4259-.905-.7607-.219-.338-.328-.759-.328-1.2627 0-.4243.078-.7806.234-1.0689.156-.2884.368-.5204.636-.6961.269-.1756.574-.3082.915-.3977.345-.0895.706-.1524 1.084-.1889.444-.0464.802-.0895 1.074-.1293.271-.0431.469-.106.591-.1889.123-.0828.184-.2055.184-.3679v-.0298c0-.3149-.099-.5585-.298-.7308-.196-.1724-.474-.2586-.835-.2586-.382 0-.685.0846-.91.2536-.226.1657-.375.3745-.448.6264l-1.958-.1591c.099-.464.295-.865.586-1.2031.292-.3414.668-.6032 1.129-.7855.464-.1856 1.001-.2784 1.611-.2784.424 0 .83.0497 1.218.1491.391.0995.737.2536 1.039.4624.305.2088.545.4772.721.8054.175.3248.263.7142.263 1.1683v5.1506h-2.008v-1.059h-.06c-.123.2387-.287.4491-.492.6314-.206.179-.453.3198-.741.4226-.288.0994-.622.1491-.999.1491Zm.606-1.4616c.312 0 .587-.0613.825-.184.239-.1259.426-.2949.562-.5071.136-.2121.204-.4524.204-.7208v-.8104c-.066.0431-.157.0829-.273.1193-.113.0332-.241.0646-.383.0945-.143.0265-.285.0513-.428.0745-.142.0199-.272.0382-.388.0547-.248.0365-.465.0945-.651.174-.185.0796-.33.1873-.432.3232-.103.1326-.154.2983-.154.4972 0 .2883.104.5087.313.6612.212.1491.48.2237.805.2237ZM153.933 61.8637v-10.5h2.088v1.2827h.095c.092-.2055.227-.4143.402-.6264.179-.2155.411-.3945.696-.537.289-.1458.647-.2187 1.074-.2187.557 0 1.071.1458 1.541.4375.471.2883.847.7242 1.129 1.3075.282.58.423 1.3075.423 2.1825 0 .8518-.138 1.5711-.413 2.1577-.272.5833-.643 1.0258-1.114 1.3274-.467.2983-.991.4475-1.571.4475-.411 0-.76-.068-1.049-.2039-.285-.1359-.518-.3066-.701-.5121-.182-.2088-.321-.4192-.417-.6313h-.065v4.0866h-2.118Zm2.073-6.6818c0 .4541.063.8501.189 1.1882.126.3381.308.6016.547.7905.239.1856.529.2784.87.2784.345 0 .636-.0945.875-.2834.239-.1922.419-.4574.542-.7954.126-.3414.189-.7342.189-1.1783 0-.4408-.061-.8286-.184-1.1634-.123-.3347-.303-.5966-.542-.7855-.239-.1889-.532-.2834-.88-.2834-.345 0-.636.0912-.875.2735-.235.1823-.416.4408-.542.7755-.126.3348-.189.7292-.189 1.1833Z" fill="#6C6E79"/>
      <path d="M44 76h245v1H44v-1ZM44 114h245v1H44v-1ZM44 153h245v1H44v-1Z" fill="#DEE3E5"/>
      <path opacity=".5" fill-rule="evenodd" clip-rule="evenodd" d="M102 126.5c0 9.113-7.3873 16.5-16.5 16.5S69 135.613 69 126.5 76.3873 110 85.5 110s16.5 7.387 16.5 16.5Zm-16.5 14.808c8.1781 0 14.808-6.63 14.808-14.808s-6.6299-14.808-14.808-14.808-14.8077 6.63-14.8077 14.808 6.6296 14.808 14.8077 14.808Z" fill="#fff"/>
      <path opacity=".5" d="M100.308 126.5c0 8.178-6.6299 14.808-14.8079 14.808-8.1781 0-14.8077-6.63-14.8077-14.808s6.6296-14.808 14.8077-14.808c8.178 0 14.8079 6.63 14.8079 14.808Z" fill="#FF4953"/>
      <path d="M86 123h-1v3h-3v1h3v3h1v-3h3v-1h-3v-3Z" fill="#FF4953"/>
      <path opacity=".5" fill-rule="evenodd" clip-rule="evenodd" d="M251 100.5c0 13.531-10.969 24.5-24.5 24.5S202 114.031 202 100.5 212.969 76 226.5 76 251 86.969 251 100.5ZM226.5 123c12.426 0 22.5-10.074 22.5-22.5 0-12.4264-10.074-22.5-22.5-22.5S204 88.0736 204 100.5c0 12.426 10.074 22.5 22.5 22.5Z" fill="#fff"/>
      <path opacity=".5" d="M249 100.5c0 12.426-10.074 22.5-22.5 22.5S204 112.926 204 100.5c0-12.4264 10.074-22.5 22.5-22.5S249 88.0736 249 100.5Z" fill="#2BB3FF"/>
      <path d="M227 97h-1v3h-3v1h3v3h1v-3h3v-1h-3v-3Z" fill="#2BB3FF"/>
      <path opacity=".5" fill-rule="evenodd" clip-rule="evenodd" d="M289 93.5c0 15.74-12.76 28.5-28.5 28.5S232 109.24 232 93.5c0-15.7401 12.76-28.5 28.5-28.5S289 77.7599 289 93.5ZM260.5 120c14.636 0 26.5-11.864 26.5-26.5 0-14.6355-11.864-26.5-26.5-26.5S234 78.8645 234 93.5c0 14.636 11.864 26.5 26.5 26.5Z" fill="#fff"/>
      <path opacity=".5" d="M287 93.5c0 14.636-11.864 26.5-26.5 26.5S234 108.136 234 93.5c0-14.6355 11.864-26.5 26.5-26.5S287 78.8645 287 93.5Z" fill="#59DDAA"/>
      <path d="M261 90h-1v3h-3v1h3v3h1v-3h3v-1h-3v-3Z" fill="#59DDAA"/>
      <path opacity=".5" fill-rule="evenodd" clip-rule="evenodd" d="M69 117.5c0 6.904-5.5964 12.5-12.5 12.5S44 124.404 44 117.5 49.5964 105 56.5 105 69 110.596 69 117.5ZM56.5 128c5.799 0 10.5-4.701 10.5-10.5S62.299 107 56.5 107 46 111.701 46 117.5 50.701 128 56.5 128Z" fill="#fff"/>
      <path opacity=".5" d="M67 117.5c0 5.799-4.701 10.5-10.5 10.5S46 123.299 46 117.5 50.701 107 56.5 107 67 111.701 67 117.5Z" fill="#AB6CFE"/>
      <path d="M57 114h-1v3h-3v1h3v3h1v-3h3v-1h-3v-3Z" fill="#AB6CFE"/>
      <path opacity=".5" fill-rule="evenodd" clip-rule="evenodd" d="M176 104c0 10.493-8.507 19-19 19s-19-8.507-19-19c0-10.4934 8.507-19 19-19s19 8.5066 19 19Zm-19 17.348c9.581 0 17.348-7.767 17.348-17.348 0-9.5809-7.767-17.3478-17.348-17.3478S139.652 94.4191 139.652 104c0 9.581 7.767 17.348 17.348 17.348Z" fill="#fff"/>
      <path opacity=".5" d="M174.348 104c0 9.581-7.767 17.348-17.348 17.348s-17.348-7.767-17.348-17.348S147.419 86.6521 157 86.6521 174.348 94.419 174.348 104Z" fill="#FF8C43"/>
      <path d="M157 100h-1v3h-3v1h3v3h1v-3h3v-1h-3v-3Z" fill="#FF8C43"/>
    </g>
    <g filter="url(#c)">
      <path d="M87 114c0-3.314 2.6863-6 6-6h301c3.314 0 6 2.686 6 6v130c0 3.314-2.686 6-6 6H93c-3.3137 0-6-2.686-6-6V114Z" fill="#fff"/>
      <g filter="url(#d)">
        <path fill="#fff" d="M103 150h100v28H103z"/>
        <path d="M114.906 168h-2.693v-8.727h2.812c.847 0 1.571.174 2.174.524.602.346 1.064.845 1.385 1.496.321.647.481 1.423.481 2.326 0 .909-.162 1.692-.486 2.348-.323.654-.795 1.157-1.414 1.509-.62.349-1.373.524-2.259.524Zm-1.636-.938h1.568c.721 0 1.319-.139 1.794-.417.474-.279.828-.675 1.061-1.189.233-.514.349-1.126.349-1.837 0-.704-.115-1.311-.345-1.819-.23-.512-.574-.904-1.031-1.176-.457-.276-1.027-.414-1.709-.414h-1.687v6.852ZM123.361 168.136c-.591 0-1.11-.14-1.556-.422-.443-.281-.79-.674-1.04-1.18-.247-.506-.37-1.096-.37-1.773 0-.681.123-1.277.37-1.785.25-.509.597-.904 1.04-1.185.446-.281.965-.422 1.556-.422.591 0 1.108.141 1.551.422.446.281.792.676 1.04 1.185.25.508.375 1.104.375 1.785 0 .677-.125 1.267-.375 1.773-.248.506-.594.899-1.04 1.18-.443.282-.96.422-1.551.422Zm0-.903c.448 0 .818-.115 1.108-.345.289-.23.504-.533.643-.908s.209-.781.209-1.219c0-.437-.07-.845-.209-1.223-.139-.377-.354-.683-.643-.916-.29-.233-.66-.349-1.108-.349-.449 0-.819.116-1.108.349-.29.233-.505.539-.644.916-.139.378-.209.786-.209 1.223 0 .438.07.844.209 1.219.139.375.354.678.644.908.289.23.659.345 1.108.345ZM127.862 168v-6.545h.971v1.022h.086c.136-.349.356-.62.66-.814.304-.196.669-.294 1.095-.294.432 0 .791.098 1.078.294.29.194.516.465.678.814h.068c.168-.338.419-.606.754-.805.336-.202.738-.303 1.206-.303.586 0 1.064.184 1.436.55.373.364.559.93.559 1.7V168h-1.006v-4.381c0-.483-.132-.828-.396-1.035-.265-.208-.576-.311-.934-.311-.46 0-.816.139-1.069.417-.253.276-.379.625-.379 1.049V168h-1.023v-4.483c0-.372-.121-.672-.362-.899-.242-.23-.553-.345-.934-.345-.261 0-.505.069-.733.209-.224.139-.406.332-.545.579-.136.244-.205.527-.205.848V168h-1.005ZM140.218 168.153c-.415 0-.792-.078-1.13-.234-.338-.159-.606-.388-.805-.686-.199-.301-.298-.665-.298-1.091 0-.375.073-.679.221-.912.148-.236.345-.42.592-.554.248-.133.52-.233.819-.298.301-.068.603-.122.907-.162.398-.051.72-.09.968-.115.25-.029.431-.075.545-.141.117-.065.175-.179.175-.341v-.034c0-.42-.115-.747-.345-.98-.228-.233-.573-.349-1.036-.349-.48 0-.856.105-1.129.315-.273.21-.465.435-.575.673l-.955-.341c.171-.397.398-.707.682-.929.287-.224.599-.38.937-.468.341-.091.677-.137 1.006-.137.21 0 .452.026.724.077.276.048.542.149.797.303.259.153.473.385.644.694.17.31.256.725.256 1.245V168h-1.006v-.886h-.051c-.068.142-.182.294-.341.456-.159.162-.371.299-.635.413-.264.114-.587.17-.967.17Zm.153-.903c.398 0 .733-.078 1.006-.234.275-.157.483-.358.622-.605.142-.248.213-.508.213-.78v-.921c-.043.051-.137.098-.281.141-.142.04-.307.075-.495.106-.184.029-.365.054-.541.077-.173.02-.314.037-.422.051-.261.034-.505.09-.733.166-.224.074-.406.186-.545.337-.137.148-.205.35-.205.605 0 .35.129.614.388.793.261.176.592.264.993.264ZM145.053 168v-6.545h1.006V168h-1.006Zm.511-7.636c-.196 0-.365-.067-.507-.201-.139-.133-.208-.294-.208-.481 0-.188.069-.348.208-.482.142-.133.311-.2.507-.2s.364.067.503.2c.142.134.213.294.213.482 0 .187-.071.348-.213.481-.139.134-.307.201-.503.201ZM148.906 164.062V168h-1.005v-6.545h.971v1.022h.086c.153-.332.386-.599.698-.801.313-.204.716-.307 1.211-.307.443 0 .831.091 1.163.273.332.179.591.452.776.818.184.364.277.824.277 1.381V168h-1.006v-4.091c0-.514-.134-.915-.401-1.202-.267-.289-.633-.434-1.099-.434-.321 0-.608.069-.861.209-.25.139-.447.342-.592.609-.145.267-.218.591-.218.971Z" fill="#6C6E79"/>
      </g>
      <g filter="url(#e)">
        <path fill="#fff" d="M203 150h83v28h-83z"/>
        <path d="M219.212 162h-1.057c-.062-.304-.171-.571-.328-.801-.153-.23-.341-.424-.562-.58-.219-.159-.462-.278-.729-.358-.267-.079-.545-.119-.835-.119-.529 0-1.007.133-1.436.401-.426.267-.766.66-1.019 1.18-.25.52-.375 1.158-.375 1.913 0 .756.125 1.394.375 1.914.253.52.593.913 1.019 1.18.429.267.907.401 1.436.401.29 0 .568-.04.835-.12.267-.079.51-.197.729-.353.221-.16.409-.354.562-.584.157-.233.266-.5.328-.801h1.057c-.079.446-.224.845-.434 1.197-.211.352-.472.652-.784.899-.313.245-.664.431-1.053.558-.386.128-.8.192-1.24.192-.744 0-1.406-.182-1.986-.545-.579-.364-1.035-.881-1.368-1.551-.332-.671-.498-1.466-.498-2.387 0-.92.166-1.716.498-2.386.333-.671.789-1.188 1.368-1.551.58-.364 1.242-.546 1.986-.546.44 0 .854.064 1.24.192.389.128.74.315 1.053.563.312.244.573.542.784.894.21.35.355.749.434 1.198ZM223.443 168.136c-.591 0-1.11-.14-1.556-.422-.443-.281-.789-.674-1.039-1.18-.248-.506-.371-1.097-.371-1.773 0-.682.123-1.277.371-1.785.25-.509.596-.904 1.039-1.185.446-.281.965-.422 1.556-.422.591 0 1.108.141 1.551.422.446.281.792.676 1.04 1.185.25.508.375 1.103.375 1.785 0 .676-.125 1.267-.375 1.773-.248.506-.594.899-1.04 1.18-.443.282-.96.422-1.551.422Zm0-.903c.449 0 .818-.115 1.108-.345.289-.23.504-.533.643-.908s.209-.781.209-1.219c0-.437-.07-.845-.209-1.223-.139-.378-.354-.683-.643-.916-.29-.233-.659-.349-1.108-.349-.449 0-.818.116-1.108.349-.29.233-.504.538-.644.916-.139.378-.208.786-.208 1.223 0 .438.069.844.208 1.219.14.375.354.678.644.908.29.23.659.345 1.108.345ZM227.944 168v-6.546h.971v1.023h.086c.136-.349.356-.621.66-.814.304-.196.669-.294 1.095-.294.432 0 .791.098 1.078.294.29.193.516.465.678.814h.068c.168-.338.419-.606.754-.805.336-.202.738-.303 1.206-.303.586 0 1.064.183 1.436.55.373.364.559.93.559 1.7V168h-1.006v-4.381c0-.483-.132-.828-.396-1.035-.264-.208-.576-.311-.934-.311-.46 0-.816.139-1.069.417-.253.276-.379.625-.379 1.049V168h-1.023v-4.483c0-.372-.121-.672-.362-.899-.242-.23-.553-.345-.934-.345-.261 0-.505.069-.733.208-.224.14-.406.333-.545.58-.136.244-.205.527-.205.848V168h-1.005ZM239.106 168.068c-.21 0-.39-.075-.541-.226-.15-.15-.226-.331-.226-.541 0-.21.076-.391.226-.541.151-.151.331-.226.541-.226.211 0 .391.075.542.226.15.15.225.331.225.541 0 .139-.035.267-.106.384-.068.116-.161.21-.277.281-.114.068-.242.102-.384.102ZM245.19 168v-8.727h1.056v4.329h.103l3.92-4.329h1.381l-3.665 3.937 3.665 4.79h-1.279l-3.034-4.057-1.091 1.227V168h-1.056ZM255.145 168.136c-.631 0-1.175-.139-1.632-.417-.454-.282-.805-.674-1.053-1.176-.244-.506-.366-1.094-.366-1.765 0-.67.122-1.261.366-1.772.248-.515.591-.915 1.032-1.202.443-.29.96-.435 1.551-.435.341 0 .677.057 1.01.171.332.113.635.298.907.554.273.253.491.588.652 1.005.162.418.243.932.243 1.543v.426h-5.045v-.869h4.023c0-.37-.074-.699-.222-.989-.145-.29-.352-.518-.622-.686-.267-.168-.582-.251-.946-.251-.401 0-.747.099-1.04.298-.29.196-.513.452-.669.767-.156.315-.234.653-.234 1.014v.58c0 .494.085.913.255 1.257.174.341.414.601.721.78.306.176.663.264 1.069.264.264 0 .503-.037.716-.111.216-.077.402-.19.558-.341.157-.153.277-.344.363-.571l.971.273c-.102.329-.274.619-.516.869-.241.247-.539.441-.894.58-.356.136-.755.204-1.198.204ZM259.834 170.454c-.171 0-.323-.014-.456-.042-.134-.026-.226-.051-.277-.077l.255-.886c.245.062.461.085.648.068.188-.017.354-.101.499-.251.147-.148.282-.388.405-.721l.187-.511-2.42-6.58h1.091l1.806 5.216h.069l1.806-5.216h1.091l-2.778 7.5c-.125.339-.28.618-.465.84-.184.224-.399.391-.643.499-.242.107-.514.161-.818.161ZM267.349 168l-1.995-6.546h1.057l1.415 5.012h.068l1.398-5.012h1.074l1.38 4.995h.069l1.414-4.995h1.057L272.292 168h-.989l-1.432-5.028h-.102L268.337 168h-.988ZM276.349 168.068c-.211 0-.391-.075-.542-.226-.15-.15-.225-.331-.225-.541 0-.21.075-.391.225-.541.151-.151.331-.226.542-.226.21 0 .39.075.541.226.15.15.226.331.226.541 0 .139-.036.267-.107.384-.068.116-.16.21-.277.281-.113.068-.241.102-.383.102Z" fill="#6C6E79"/>
      </g>
      <g filter="url(#f)">
        <path fill="#fff" d="M286 150h98v28h-98z"/>
        <path d="M303.267 162h-1.057c-.062-.304-.172-.571-.328-.801-.153-.23-.341-.424-.562-.58-.219-.159-.462-.278-.729-.358-.267-.079-.546-.119-.835-.119-.529 0-1.008.133-1.436.401-.427.267-.766.66-1.019 1.18-.25.52-.375 1.158-.375 1.913 0 .756.125 1.394.375 1.914.253.52.592.913 1.019 1.18.428.267.907.401 1.436.401.289 0 .568-.04.835-.12.267-.079.51-.197.729-.353.221-.16.409-.354.562-.584.156-.233.266-.5.328-.801h1.057c-.08.446-.224.845-.435 1.197-.21.352-.471.652-.784.899-.312.245-.663.431-1.052.558-.387.128-.8.192-1.24.192-.745 0-1.407-.182-1.986-.545-.58-.364-1.036-.881-1.368-1.551-.332-.671-.499-1.466-.499-2.387 0-.92.167-1.716.499-2.386.332-.671.788-1.188 1.368-1.551.579-.364 1.241-.546 1.986-.546.44 0 .853.064 1.24.192.389.128.74.315 1.052.563.313.244.574.542.784.894.211.35.355.749.435 1.198ZM307.497 168.136c-.59 0-1.109-.14-1.555-.422-.443-.281-.79-.674-1.04-1.18-.247-.506-.37-1.097-.37-1.773 0-.682.123-1.277.37-1.785.25-.509.597-.904 1.04-1.185.446-.281.965-.422 1.555-.422.591 0 1.108.141 1.552.422.446.281.792.676 1.039 1.185.25.508.375 1.103.375 1.785 0 .676-.125 1.267-.375 1.773-.247.506-.593.899-1.039 1.18-.444.282-.961.422-1.552.422Zm0-.903c.449 0 .819-.115 1.108-.345.29-.23.505-.533.644-.908s.209-.781.209-1.219c0-.437-.07-.845-.209-1.223-.139-.378-.354-.683-.644-.916-.289-.233-.659-.349-1.108-.349-.448 0-.818.116-1.108.349-.289.233-.504.538-.643.916s-.209.786-.209 1.223c0 .438.07.844.209 1.219.139.375.354.678.643.908.29.23.66.345 1.108.345ZM311.998 168v-6.546h.972v1.023h.085c.137-.349.357-.621.661-.814.304-.196.669-.294 1.095-.294.432 0 .791.098 1.078.294.29.193.516.465.678.814h.068c.167-.338.419-.606.754-.805.335-.202.737-.303 1.206-.303.585 0 1.064.183 1.436.55.372.364.558.93.558 1.7V168h-1.005v-4.381c0-.483-.132-.828-.397-1.035-.264-.208-.575-.311-.933-.311-.46 0-.817.139-1.069.417-.253.276-.38.625-.38 1.049V168h-1.022v-4.483c0-.372-.121-.672-.363-.899-.241-.23-.552-.345-.933-.345-.261 0-.506.069-.733.208-.224.14-.406.333-.545.58-.137.244-.205.527-.205.848V168h-1.006ZM323.161 168.068c-.21 0-.39-.075-.541-.226-.151-.15-.226-.331-.226-.541 0-.21.075-.391.226-.541.151-.151.331-.226.541-.226.21 0 .391.075.541.226.151.15.226.331.226.541 0 .139-.035.267-.106.384-.069.116-.161.21-.277.281-.114.068-.242.102-.384.102ZM329.244 168v-8.727h1.057v7.789h4.057V168h-5.114ZM338.602 168.136c-.63 0-1.175-.139-1.632-.417-.454-.282-.805-.674-1.052-1.176-.245-.506-.367-1.094-.367-1.765 0-.67.122-1.261.367-1.772.247-.515.59-.915 1.031-1.202.443-.29.96-.435 1.551-.435.341 0 .677.057 1.01.171.332.113.635.298.908.554.272.253.49.588.652 1.005.161.418.242.932.242 1.543v.426h-5.045v-.869h4.023c0-.37-.074-.699-.222-.989-.145-.29-.352-.518-.622-.686-.267-.168-.582-.251-.946-.251-.401 0-.747.099-1.04.298-.29.196-.513.452-.669.767-.156.315-.234.653-.234 1.014v.58c0 .494.085.913.255 1.257.174.341.414.601.721.78.306.176.663.264 1.069.264.264 0 .503-.037.716-.111.216-.077.402-.19.558-.341.157-.153.277-.344.363-.571l.971.273c-.102.329-.274.619-.515.869-.242.247-.54.441-.895.58-.355.136-.755.204-1.198.204ZM347.995 161.454l-2.42 6.546h-1.023l-2.42-6.546h1.091l1.806 5.216h.069l1.806-5.216h1.091ZM351.833 168.136c-.631 0-1.175-.139-1.632-.417-.455-.282-.806-.674-1.053-1.176-.244-.506-.366-1.094-.366-1.765 0-.67.122-1.261.366-1.772.247-.515.591-.915 1.031-1.202.443-.29.96-.435 1.551-.435.341 0 .678.057 1.01.171.333.113.635.298.908.554.273.253.49.588.652 1.005.162.418.243.932.243 1.543v.426h-5.046v-.869h4.023c0-.37-.074-.699-.221-.989-.145-.29-.353-.518-.623-.686-.267-.168-.582-.251-.946-.251-.4 0-.747.099-1.039.298-.29.196-.513.452-.669.767-.157.315-.235.653-.235 1.014v.58c0 .494.085.913.256 1.257.173.341.413.601.72.78.307.176.663.264 1.07.264.264 0 .502-.037.716-.111.215-.077.402-.19.558-.341.156-.153.277-.344.362-.571l.972.273c-.103.329-.275.619-.516.869-.241.247-.54.441-.895.58-.355.136-.754.204-1.197.204ZM357.078 159.273V168h-1.005v-8.727h1.005Z" fill="#6C6E79"/>
        <path d="M373.375 159.625c.483 0 .875.392.875.875s-.392.875-.875.875h-8.75c-.483 0-.875-.392-.875-.875s.392-.875.875-.875h8.75ZM370.75 164c0-.483-.392-.875-.875-.875h-5.25c-.483 0-.875.392-.875.875s.392.875.875.875h5.25c.483 0 .875-.392.875-.875ZM367.25 167.5c0-.483-.392-.875-.875-.875h-1.75c-.483 0-.875.392-.875.875s.392.875.875.875h1.75c.483 0 .875-.392.875-.875Z" fill="#A9ABB6"/>
      </g>
      <g filter="url(#g)">
        <path fill="#fff" d="M103 178h100v28H103z"/>
        <path d="M115.423 196.136c-.631 0-1.175-.139-1.632-.417-.455-.282-.806-.674-1.053-1.176-.244-.506-.366-1.094-.366-1.765 0-.67.122-1.261.366-1.772.247-.515.591-.915 1.031-1.202.443-.29.961-.435 1.551-.435.341 0 .678.057 1.01.171.333.113.635.298.908.554.273.253.49.588.652 1.005.162.418.243.932.243 1.543v.426h-5.046v-.869h4.023c0-.369-.074-.699-.221-.989-.145-.29-.353-.518-.623-.686-.267-.167-.582-.251-.946-.251-.4 0-.747.099-1.039.298-.29.196-.513.452-.669.767-.157.315-.235.653-.235 1.014v.58c0 .494.085.913.256 1.257.173.341.413.601.72.78.307.176.663.264 1.07.264.264 0 .503-.037.716-.111.216-.077.402-.19.558-.341.156-.153.277-.344.362-.571l.972.273c-.103.329-.274.619-.516.869-.241.247-.54.441-.895.58-.355.136-.754.204-1.197.204ZM119.799 196v-8.727h1.006v3.221h.085c.074-.113.176-.258.307-.434.133-.179.324-.338.571-.478.25-.142.588-.213 1.014-.213.551 0 1.037.138 1.457.414.421.275.749.666.985 1.172.236.505.354 1.102.354 1.789 0 .693-.118 1.294-.354 1.803-.236.506-.563.898-.98 1.176-.418.276-.899.413-1.445.413-.42 0-.757-.069-1.01-.208-.253-.143-.447-.303-.584-.482-.136-.182-.241-.332-.315-.452h-.119V196h-.972Zm.989-3.273c0 .495.072.931.217 1.308.145.375.357.67.635.883.278.21.619.315 1.023.315.42 0 .771-.111 1.052-.332.284-.225.497-.526.64-.904.144-.381.217-.804.217-1.27 0-.46-.071-.875-.213-1.244-.139-.372-.351-.666-.635-.882-.281-.219-.635-.328-1.061-.328-.409 0-.753.103-1.031.311-.279.204-.489.491-.631.861-.142.366-.213.794-.213 1.282ZM129.042 196.153c-.415 0-.791-.078-1.129-.234-.338-.159-.607-.388-.806-.686-.198-.301-.298-.665-.298-1.091 0-.375.074-.679.222-.912.147-.236.345-.42.592-.554.247-.133.52-.233.818-.298.301-.068.604-.122.908-.162.398-.051.72-.09.967-.115.25-.029.432-.075.546-.141.116-.065.174-.179.174-.341v-.034c0-.42-.115-.747-.345-.98-.227-.233-.572-.349-1.035-.349-.48 0-.857.105-1.13.315-.272.21-.464.435-.575.673l-.954-.341c.17-.397.397-.707.681-.929.287-.224.6-.38.938-.468.341-.091.676-.137 1.006-.137.21 0 .451.026.724.077.276.048.541.149.797.303.258.153.473.385.643.694.171.31.256.725.256 1.244V196h-1.006v-.886h-.051c-.068.142-.182.294-.341.456-.159.162-.37.299-.635.413-.264.114-.586.17-.967.17Zm.153-.903c.398 0 .733-.078 1.006-.234.276-.157.483-.358.622-.606.142-.247.213-.507.213-.779v-.921c-.042.051-.136.098-.281.141-.142.04-.307.075-.494.106-.185.029-.365.054-.541.077-.174.02-.314.037-.422.051-.262.034-.506.09-.733.166-.225.074-.406.186-.546.337-.136.148-.204.349-.204.605 0 .35.129.614.388.793.261.176.592.264.992.264ZM134.291 198.455c-.17 0-.322-.015-.456-.043-.134-.026-.226-.051-.277-.077l.256-.886c.244.062.46.085.647.068.188-.017.354-.101.499-.251.148-.148.283-.388.405-.721l.187-.511-2.42-6.579h1.091l1.807 5.215h.068l1.807-5.215h1.091l-2.779 7.5c-.125.338-.28.617-.464.839-.185.224-.4.391-.644.499-.241.108-.514.162-.818.162ZM141.056 196.068c-.21 0-.391-.075-.541-.226-.151-.15-.226-.331-.226-.541 0-.21.075-.391.226-.541.15-.151.331-.226.541-.226.21 0 .391.075.541.226.151.15.226.331.226.541 0 .139-.036.267-.107.384-.068.116-.16.21-.277.281-.113.068-.241.102-.383.102ZM146.287 196.136c-.614 0-1.142-.145-1.586-.434-.443-.29-.784-.689-1.022-1.198-.239-.508-.358-1.089-.358-1.743 0-.664.122-1.251.366-1.76.247-.511.591-.91 1.032-1.197.443-.29.96-.435 1.551-.435.46 0 .875.086 1.244.256s.672.409.908.716c.235.307.382.665.439 1.074h-1.006c-.077-.299-.247-.563-.511-.793-.262-.233-.614-.349-1.057-.349-.392 0-.736.102-1.032.307-.292.201-.521.487-.686.856-.162.367-.243.797-.243 1.291 0 .506.08.946.239 1.321.162.375.389.666.682.874.295.207.642.311 1.04.311.261 0 .498-.046.711-.136.213-.091.394-.222.542-.392.147-.171.252-.375.315-.614h1.006c-.057.386-.198.734-.422 1.044-.222.307-.516.551-.882.733-.364.179-.787.268-1.27.268ZM152.99 196.136c-.591 0-1.11-.14-1.556-.422-.443-.281-.789-.674-1.039-1.18-.247-.506-.371-1.097-.371-1.773 0-.681.124-1.277.371-1.785.25-.509.596-.904 1.039-1.185.446-.281.965-.422 1.556-.422.591 0 1.108.141 1.551.422.446.281.793.676 1.04 1.185.25.508.375 1.104.375 1.785 0 .676-.125 1.267-.375 1.773-.247.506-.594.899-1.04 1.18-.443.282-.96.422-1.551.422Zm0-.903c.449 0 .818-.115 1.108-.345.29-.23.504-.533.643-.908s.209-.781.209-1.219c0-.437-.07-.845-.209-1.223-.139-.378-.353-.683-.643-.916-.29-.233-.659-.349-1.108-.349-.449 0-.818.116-1.108.349-.29.233-.504.538-.644.916-.139.378-.208.786-.208 1.223 0 .438.069.844.208 1.219.14.375.354.678.644.908.29.23.659.345 1.108.345ZM157.491 196v-6.545h.971v1.022h.086c.136-.349.356-.62.66-.814.304-.196.669-.294 1.095-.294.432 0 .792.098 1.079.294.289.194.515.465.677.814h.068c.168-.338.419-.606.755-.805.335-.202.737-.303 1.205-.303.586 0 1.064.184 1.437.55.372.364.558.93.558 1.7V196h-1.006v-4.381c0-.483-.132-.828-.396-1.035-.264-.208-.575-.311-.933-.311-.461 0-.817.139-1.07.417-.253.276-.379.625-.379 1.049V196h-1.023v-4.483c0-.372-.121-.672-.362-.899-.242-.23-.553-.345-.933-.345-.262 0-.506.069-.733.209-.225.139-.407.332-.546.579-.136.244-.204.527-.204.848V196h-1.006Z" fill="#006DCA"/>
        <path d="M181.791 186.809c-.09-.038-.188-.059-.292-.059h-3.186c-.415 0-.751.336-.751.751s.336.751.751.751h1.373l-4.713 4.716c-.294.293-.294.769 0 1.062.293.294.769.294 1.062 0l4.713-4.716v1.373c0 .415.336.751.751.751s.751-.336.751-.751v-3.186c0-.178-.062-.342-.166-.471-.077-.096-.178-.172-.293-.221Z" fill="#A9ABB6"/>
        <path d="M171.75 189.75c0-.414.336-.75.75-.75h3v1.5h-2.25v5.25h5.25v-2.25h1.5v3c0 .414-.336.75-.75.75h-6.75c-.414 0-.75-.336-.75-.75v-6.75Z" fill="#A9ABB6"/>
      </g>
      <g filter="url(#h)">
        <path fill="#fff" d="M203 178h83v28h-83z"/>
        <path d="M238.004 187.273V196h-1.057v-7.619h-.051l-2.131 1.414v-1.073l2.182-1.449h1.057ZM244.597 196.119c-.585 0-1.102-.103-1.551-.311-.446-.21-.794-.498-1.044-.865-.25-.369-.374-.79-.371-1.261-.003-.37.07-.71.218-1.023.147-.315.349-.578.605-.788.258-.213.547-.348.865-.405v-.051c-.418-.108-.75-.343-.997-.703-.248-.364-.37-.777-.367-1.24-.003-.444.109-.84.337-1.189.227-.35.54-.625.937-.827.401-.202.857-.303 1.368-.303.506 0 .958.101 1.355.303.398.202.711.477.938.827.23.349.346.745.349 1.189-.003.463-.129.876-.379 1.24-.247.36-.575.595-.984.703v.051c.315.057.599.192.852.405.253.21.454.473.605.788.151.313.227.653.23 1.023-.003.471-.131.892-.383 1.261-.25.367-.598.655-1.044.865-.444.208-.956.311-1.539.311Zm0-.937c.395 0 .736-.064 1.023-.192.287-.128.508-.308.665-.541.156-.233.235-.506.238-.818-.003-.33-.088-.621-.255-.874-.168-.253-.397-.452-.686-.597-.287-.144-.616-.217-.985-.217-.372 0-.704.073-.997.217-.29.145-.518.344-.686.597-.165.253-.246.544-.243.874-.003.312.072.585.226.818.156.233.379.413.669.541.29.128.633.192 1.031.192Zm0-4.142c.313 0 .59-.063.831-.188.244-.125.436-.3.575-.524.14-.224.211-.487.213-.788-.002-.296-.072-.553-.208-.772-.137-.221-.326-.392-.567-.511-.242-.122-.523-.183-.844-.183-.327 0-.612.061-.856.183-.245.119-.434.29-.567.511-.134.219-.199.476-.196.772-.003.301.064.564.2.788.139.224.331.399.575.524.245.125.526.188.844.188ZM252.333 196.119c-.5 0-.951-.099-1.351-.298-.401-.199-.722-.472-.963-.818-.242-.347-.374-.742-.397-1.185h1.023c.04.395.219.722.537.98.321.256.705.384 1.151.384.358 0 .676-.084.954-.252.281-.167.502-.397.661-.69.162-.295.243-.629.243-1.001 0-.381-.084-.721-.252-1.019-.165-.301-.392-.538-.682-.712-.289-.173-.62-.261-.993-.264-.267-.003-.541.039-.822.124-.281.082-.513.189-.695.319l-.988-.119.528-4.295h4.534v.937h-3.647l-.307 2.574h.051c.179-.142.403-.26.673-.354.27-.093.551-.14.844-.14.534 0 1.01.128 1.427.383.421.253.75.6.989 1.04.242.44.362.943.362 1.509 0 .556-.125 1.053-.375 1.491-.247.435-.588.778-1.022 1.031-.435.25-.929.375-1.483.375ZM257.903 196.068c-.21 0-.39-.075-.541-.226-.15-.15-.226-.331-.226-.541 0-.21.076-.391.226-.541.151-.151.331-.226.541-.226.211 0 .391.075.541.226.151.15.226.331.226.541 0 .139-.035.267-.106.384-.068.116-.161.21-.277.281-.114.068-.242.102-.384.102ZM264.617 187.273V196h-1.057v-7.619h-.051l-2.131 1.414v-1.073l2.182-1.449h1.057ZM268.381 187.273h1.261l2.966 7.244h.102l2.966-7.244h1.262V196h-.989v-6.631h-.085L273.137 196h-.955l-2.727-6.631h-.085V196h-.989v-8.727Z" fill="#6C6E79"/>
      </g>
      <g filter="url(#i)">
        <path fill="#fff" d="M286 178h98v28h-98z"/>
        <path d="M294 192c0-2.209 1.791-4 4-4h74c2.209 0 4 1.791 4 4s-1.791 4-4 4h-74c-2.209 0-4-1.791-4-4Z" fill="#E0E1E9"/>
        <rect x="294" y="188" width="65.6" height="8" rx="4" fill="#2BB3FF"/>
      </g>
      <g filter="url(#j)">
        <path fill="#fff" d="M103 206h100v28H103z"/>
        <path d="m114.021 224-1.995-6.545h1.057l1.415 5.011h.068l1.398-5.011h1.074l1.38 4.994h.069l1.414-4.994h1.057L118.964 224h-.989l-1.432-5.028h-.102L115.009 224h-.988ZM124.214 224.153c-.415 0-.791-.078-1.129-.234-.338-.159-.607-.388-.806-.686-.199-.301-.298-.665-.298-1.091 0-.375.074-.679.222-.912.147-.236.345-.42.592-.554.247-.133.52-.233.818-.298.301-.068.604-.122.908-.162.397-.051.72-.09.967-.115.25-.029.432-.075.545-.141.117-.065.175-.179.175-.341v-.034c0-.42-.115-.747-.345-.98-.227-.233-.572-.349-1.035-.349-.481 0-.857.105-1.13.315-.272.21-.464.435-.575.673l-.955-.341c.171-.397.398-.707.682-.929.287-.224.6-.38.938-.468.341-.091.676-.137 1.005-.137.211 0 .452.026.725.077.275.048.541.149.797.303.258.153.473.385.643.694.171.31.256.725.256 1.244V224h-1.006v-.886h-.051c-.068.142-.182.294-.341.456-.159.162-.371.299-.635.413-.264.114-.586.17-.967.17Zm.153-.903c.398 0 .733-.078 1.006-.234.276-.157.483-.358.622-.606.142-.247.213-.507.213-.779v-.921c-.042.051-.136.098-.281.141-.142.04-.307.075-.494.106-.185.029-.365.054-.542.077-.173.02-.313.037-.421.051-.262.034-.506.09-.733.166-.225.074-.407.186-.546.337-.136.148-.204.349-.204.605 0 .35.129.614.387.793.262.176.593.264.993.264ZM130.055 215.273V224h-1.006v-8.727h1.006ZM131.897 224v-6.545h.972v1.022h.085c.136-.349.356-.62.66-.814.304-.196.669-.294 1.096-.294.431 0 .791.098 1.078.294.29.194.515.465.677.814h.068c.168-.338.42-.606.755-.805.335-.202.737-.303 1.206-.303.585 0 1.064.184 1.436.55.372.364.558.93.558 1.7V224h-1.006v-4.381c0-.483-.132-.828-.396-1.035-.264-.208-.575-.311-.933-.311-.46 0-.817.139-1.07.417-.253.276-.379.625-.379 1.049V224h-1.023v-4.483c0-.372-.121-.672-.362-.899-.241-.23-.553-.345-.933-.345-.262 0-.506.069-.733.209-.225.139-.406.332-.546.579-.136.244-.204.527-.204.848V224h-1.006ZM144.253 224.153c-.415 0-.791-.078-1.129-.234-.338-.159-.607-.388-.806-.686-.199-.301-.298-.665-.298-1.091 0-.375.074-.679.222-.912.147-.236.345-.42.592-.554.247-.133.52-.233.818-.298.301-.068.604-.122.908-.162.397-.051.72-.09.967-.115.25-.029.432-.075.546-.141.116-.065.174-.179.174-.341v-.034c0-.42-.115-.747-.345-.98-.227-.233-.572-.349-1.035-.349-.481 0-.857.105-1.13.315-.272.21-.464.435-.575.673l-.955-.341c.171-.397.398-.707.682-.929.287-.224.6-.38.938-.468.341-.091.676-.137 1.005-.137.211 0 .452.026.725.077.275.048.541.149.797.303.258.153.473.385.643.694.171.31.256.725.256 1.244V224h-1.006v-.886h-.051c-.068.142-.182.294-.341.456-.159.162-.371.299-.635.413-.264.114-.586.17-.967.17Zm.153-.903c.398 0 .733-.078 1.006-.234.276-.157.483-.358.622-.606.142-.247.213-.507.213-.779v-.921c-.042.051-.136.098-.281.141-.142.04-.307.075-.494.106-.185.029-.365.054-.542.077-.173.02-.313.037-.421.051-.262.034-.506.09-.733.166-.225.074-.407.186-.546.337-.136.148-.204.349-.204.605 0 .35.129.614.387.793.262.176.593.264.993.264ZM149.089 224v-6.545h.971v.988h.068c.12-.324.336-.586.648-.788.313-.202.665-.303 1.057-.303.074 0 .166.002.277.005.111.002.194.007.251.012v1.023c-.034-.008-.112-.021-.234-.038-.119-.02-.246-.03-.379-.03-.319 0-.603.067-.853.2-.247.131-.443.313-.588.546-.142.23-.213.492-.213.788V224h-1.005ZM156.81 217.455v.852h-3.392v-.852h3.392Zm-2.403-1.569h1.005v6.239c0 .284.042.497.124.639.085.139.193.233.324.281.133.046.274.069.422.069.11 0 .201-.006.272-.017.071-.015.128-.026.171-.035l.204.904c-.068.025-.163.051-.285.077-.122.028-.277.042-.465.042-.284 0-.562-.061-.835-.183-.27-.122-.494-.308-.673-.558-.176-.25-.264-.566-.264-.946v-6.512ZM159.056 224.068c-.21 0-.391-.075-.541-.226-.151-.15-.226-.331-.226-.541 0-.21.075-.391.226-.541.15-.151.331-.226.541-.226.21 0 .39.075.541.226.151.15.226.331.226.541 0 .139-.036.267-.107.384-.068.116-.16.21-.277.281-.113.068-.241.102-.383.102ZM164.287 224.136c-.614 0-1.142-.145-1.586-.434-.443-.29-.784-.689-1.022-1.198-.239-.508-.358-1.089-.358-1.743 0-.664.122-1.251.366-1.76.247-.511.591-.91 1.031-1.197.444-.29.961-.435 1.552-.435.46 0 .875.086 1.244.256s.672.409.908.716c.235.307.382.665.439 1.074h-1.006c-.077-.299-.247-.563-.512-.793-.261-.233-.613-.349-1.056-.349-.392 0-.736.102-1.032.307-.292.201-.521.487-.686.856-.162.367-.243.797-.243 1.291 0 .506.08.946.239 1.321.162.375.389.666.682.874.295.207.642.311 1.04.311.261 0 .498-.046.711-.136.213-.091.394-.222.542-.392.147-.171.252-.375.315-.614h1.006c-.057.386-.198.734-.422 1.044-.222.307-.516.551-.882.733-.364.179-.787.268-1.27.268ZM170.99 224.136c-.591 0-1.11-.14-1.556-.422-.443-.281-.789-.674-1.039-1.18-.248-.506-.371-1.097-.371-1.773 0-.681.123-1.277.371-1.785.25-.509.596-.904 1.039-1.185.446-.281.965-.422 1.556-.422.591 0 1.108.141 1.551.422.446.281.793.676 1.04 1.185.25.508.375 1.104.375 1.785 0 .676-.125 1.267-.375 1.773-.247.506-.594.899-1.04 1.18-.443.282-.96.422-1.551.422Zm0-.903c.449 0 .818-.115 1.108-.345.29-.23.504-.533.643-.908s.209-.781.209-1.219c0-.437-.07-.845-.209-1.223-.139-.378-.353-.683-.643-.916-.29-.233-.659-.349-1.108-.349-.449 0-.818.116-1.108.349-.29.233-.504.538-.644.916-.139.378-.208.786-.208 1.223 0 .438.069.844.208 1.219.14.375.354.678.644.908.29.23.659.345 1.108.345ZM175.491 224v-6.545h.971v1.022h.086c.136-.349.356-.62.66-.814.304-.196.669-.294 1.095-.294.432 0 .792.098 1.078.294.29.194.516.465.678.814h.068c.168-.338.419-.606.754-.805.336-.202.738-.303 1.206-.303.586 0 1.064.184 1.437.55.372.364.558.93.558 1.7V224h-1.006v-4.381c0-.483-.132-.828-.396-1.035-.264-.208-.576-.311-.933-.311-.461 0-.817.139-1.07.417-.253.276-.379.625-.379 1.049V224h-1.023v-4.483c0-.372-.121-.672-.362-.899-.242-.23-.553-.345-.934-.345-.261 0-.505.069-.732.209-.225.139-.407.332-.546.579-.136.244-.204.527-.204.848V224h-1.006Z" fill="#006DCA"/>
        <path d="M199.791 214.809c-.09-.038-.188-.059-.292-.059h-3.186c-.415 0-.751.336-.751.751s.336.751.751.751h1.373l-4.713 4.716c-.294.293-.294.769 0 1.062.293.294.769.294 1.062 0l4.713-4.716v1.373c0 .415.336.751.751.751s.751-.336.751-.751v-3.186c0-.178-.062-.342-.166-.471-.077-.096-.178-.172-.293-.221Z" fill="#A9ABB6"/>
        <path d="M189.75 217.75c0-.414.336-.75.75-.75h3v1.5h-2.25v5.25h5.25v-2.25h1.5v3c0 .414-.336.75-.75.75h-6.75c-.414 0-.75-.336-.75-.75v-6.75Z" fill="#A9ABB6"/>
      </g>
      <g filter="url(#k)">
        <path fill="#fff" d="M203 206h83v28h-83z"/>
        <path d="M244.631 224.119c-.562 0-1.063-.096-1.504-.29-.437-.193-.785-.461-1.044-.805-.256-.347-.395-.749-.417-1.206h1.073c.023.281.12.524.29.729.171.201.394.358.669.469.276.11.581.166.916.166.375 0 .708-.066.998-.196.289-.131.517-.313.681-.546.165-.233.248-.503.248-.809 0-.321-.08-.604-.239-.848-.159-.248-.392-.441-.699-.58-.307-.139-.682-.209-1.125-.209h-.699v-.937h.699c.347 0 .651-.063.912-.188.264-.125.47-.301.618-.528.15-.227.226-.494.226-.801 0-.296-.066-.553-.196-.772-.131-.218-.316-.389-.554-.511-.236-.122-.514-.183-.836-.183-.301 0-.585.055-.852.166-.264.108-.48.266-.648.473-.167.205-.258.452-.272.741h-1.023c.017-.457.155-.857.413-1.201.259-.347.597-.617 1.015-.81.42-.193.882-.29 1.385-.29.539 0 1.002.11 1.389.328.386.216.683.502.89.857.208.355.311.739.311 1.151 0 .491-.129.91-.387 1.257-.256.346-.604.586-1.044.72v.068c.551.091.981.325 1.291.703.309.375.464.84.464 1.394 0 .474-.129.9-.387 1.278-.256.375-.606.67-1.049.886-.443.216-.947.324-1.513.324ZM249.64 224v-.767l2.88-3.154c.338-.369.617-.69.836-.963.218-.275.38-.534.485-.775.108-.244.162-.5.162-.767 0-.307-.074-.573-.221-.797-.145-.225-.344-.398-.597-.52s-.537-.183-.852-.183c-.335 0-.628.069-.878.209-.247.136-.439.328-.575.575-.134.247-.201.537-.201.869h-1.005c0-.511.118-.96.353-1.346.236-.387.557-.688.963-.904.41-.216.868-.324 1.377-.324.511 0 .964.108 1.359.324.395.216.705.507.929.874.225.366.337.774.337 1.223 0 .321-.058.635-.175.942-.113.304-.312.643-.596 1.018-.282.372-.672.827-1.172 1.364l-1.961 2.096v.068h4.057V224h-5.505ZM257.903 224.068c-.21 0-.39-.075-.541-.226-.15-.15-.226-.331-.226-.541 0-.21.076-.391.226-.541.151-.151.331-.226.541-.226.211 0 .391.075.542.226.15.15.225.331.225.541 0 .139-.035.267-.106.384-.068.116-.161.21-.277.281-.114.068-.242.102-.384.102ZM263.407 224.119c-.5 0-.95-.099-1.351-.298-.4-.199-.721-.472-.963-.818-.241-.347-.373-.742-.396-1.185h1.023c.039.395.218.722.536.98.321.256.705.384 1.151.384.358 0 .676-.084.955-.252.281-.167.501-.397.66-.69.162-.295.243-.629.243-1.001 0-.381-.084-.721-.251-1.019-.165-.301-.393-.538-.682-.712-.29-.173-.621-.261-.993-.264-.267-.003-.541.039-.823.124-.281.082-.512.189-.694.319l-.989-.119.529-4.295h4.534v.937h-3.648l-.307 2.574h.051c.179-.142.404-.26.674-.354.269-.093.551-.14.843-.14.534 0 1.01.128 1.428.383.42.253.75.6.988 1.04.242.44.363.943.363 1.509 0 .556-.125 1.053-.375 1.491-.247.435-.588.778-1.023 1.031-.435.25-.929.375-1.483.375ZM268.381 215.273h1.261l2.966 7.244h.103l2.966-7.244h1.261V224h-.989v-6.631h-.085L273.137 224h-.955l-2.727-6.631h-.085V224h-.989v-8.727Z" fill="#6C6E79"/>
      </g>
      <g filter="url(#l)">
        <path fill="#fff" d="M286 206h98v28h-98z"/>
        <path d="M294 220c0-2.209 1.791-4 4-4h74c2.209 0 4 1.791 4 4s-1.791 4-4 4h-74c-2.209 0-4-1.791-4-4Z" fill="#E0E1E9"/>
        <rect x="294" y="216" width="24.6" height="8" rx="4" fill="#2BB3FF"/>
      </g>
      <path d="M103.885 128.818h2.655l2.804 6.841h.119l2.804-6.841h2.655V139h-2.088v-6.627h-.085l-2.635 6.577h-1.422l-2.635-6.602h-.084V139h-2.088v-10.182ZM118.833 139.144c-.487 0-.921-.084-1.302-.253-.382-.173-.683-.426-.905-.761-.219-.338-.328-.759-.328-1.263 0-.424.077-.78.233-1.069.156-.288.368-.52.637-.696.268-.175.573-.308.914-.397.345-.09.706-.153 1.084-.189.444-.047.802-.09 1.074-.13.272-.043.469-.106.592-.188.122-.083.184-.206.184-.368v-.03c0-.315-.1-.559-.299-.731-.195-.172-.474-.259-.835-.259-.381 0-.684.085-.91.254-.225.166-.374.375-.447.626l-1.959-.159c.099-.464.295-.865.587-1.203.291-.341.668-.603 1.128-.785.464-.186 1.001-.279 1.611-.279.424 0 .83.05 1.218.149.391.1.738.254 1.039.463.305.209.545.477.721.805.176.325.264.714.264 1.168V139h-2.009v-1.059h-.06c-.122.239-.286.449-.492.632-.205.178-.452.319-.741.422-.288.1-.621.149-.999.149Zm.607-1.461c.311 0 .586-.062.825-.184.239-.126.426-.295.562-.507.136-.213.204-.453.204-.721v-.811c-.067.043-.158.083-.274.12-.113.033-.24.064-.383.094-.142.027-.285.051-.427.075-.143.02-.272.038-.388.054-.249.037-.466.095-.651.174-.186.08-.33.188-.433.323-.103.133-.154.299-.154.498 0 .288.104.508.313.661.212.149.481.224.806.224ZM124.777 139v-7.636h2.118V139h-2.118Zm1.064-8.621c-.315 0-.585-.104-.811-.313-.222-.212-.333-.466-.333-.761 0-.291.111-.541.333-.75.226-.212.496-.318.811-.318.314 0 .583.106.805.318.225.209.338.459.338.75 0 .295-.113.549-.338.761-.222.209-.491.313-.805.313ZM130.709 134.585V139h-2.118v-7.636h2.019v1.347h.089c.169-.444.452-.795.85-1.054.398-.262.88-.393 1.447-.393.53 0 .993.116 1.387.348.394.232.701.564.92.995.218.427.328.938.328 1.531V139h-2.118v-4.484c.003-.468-.116-.832-.358-1.094-.242-.265-.575-.398-.999-.398-.285 0-.537.062-.756.184-.215.123-.384.302-.507.537-.119.232-.181.512-.184.84ZM149.937 133.909c0 1.11-.211 2.055-.632 2.834-.417.779-.987 1.374-1.71 1.785-.719.407-1.528.611-2.426.611-.905 0-1.717-.205-2.436-.616-.719-.411-1.288-1.006-1.705-1.785-.418-.779-.627-1.722-.627-2.829 0-1.11.209-2.055.627-2.834.417-.779.986-1.372 1.705-1.779.719-.411 1.531-.617 2.436-.617.898 0 1.707.206 2.426.617.723.407 1.293 1 1.71 1.779.421.779.632 1.724.632 2.834Zm-2.183 0c0-.719-.108-1.326-.323-1.819-.212-.494-.512-.869-.9-1.124-.388-.255-.842-.383-1.362-.383-.521 0-.975.128-1.362.383-.388.255-.69.63-.905 1.124-.212.493-.318 1.1-.318 1.819 0 .719.106 1.326.318 1.82.215.494.517.868.905 1.123.387.256.841.383 1.362.383.52 0 .974-.127 1.362-.383.388-.255.688-.629.9-1.123.215-.494.323-1.101.323-1.82ZM151.491 139v-7.636h2.054v1.332h.079c.139-.474.373-.832.701-1.074.328-.245.706-.368 1.134-.368.106 0 .22.007.343.02.122.013.23.032.323.055v1.879c-.099-.03-.237-.056-.413-.079-.175-.024-.336-.035-.482-.035-.311 0-.59.068-.835.204-.242.132-.434.318-.577.556-.139.239-.209.514-.209.826V139h-2.118ZM160.305 142.023c-.686 0-1.275-.095-1.765-.284-.487-.185-.875-.439-1.163-.76-.289-.322-.476-.683-.562-1.084l1.959-.264c.059.153.154.295.283.428.129.133.3.239.512.318.216.083.477.124.786.124.46 0 .84-.112 1.138-.338.302-.222.452-.595.452-1.118v-1.397h-.089c-.093.212-.232.412-.418.601-.185.189-.424.343-.716.463-.291.119-.639.179-1.044.179-.573 0-1.095-.133-1.566-.398-.467-.269-.84-.678-1.118-1.228-.275-.554-.413-1.253-.413-2.098 0-.865.141-1.588.423-2.168.281-.58.656-1.014 1.123-1.302.471-.289.986-.433 1.546-.433.428 0 .786.073 1.074.219.289.143.521.322.696.537.179.212.317.421.413.626h.08v-1.282h2.103v7.711c0 .649-.16 1.193-.478 1.63-.318.438-.759.766-1.322.985-.56.222-1.205.333-1.934.333Zm.045-4.723c.341 0 .629-.085.865-.254.238-.172.421-.417.547-.736.129-.321.193-.706.193-1.153 0-.447-.063-.835-.188-1.163-.126-.332-.309-.589-.547-.771-.239-.182-.529-.273-.87-.273-.348 0-.642.094-.88.283-.239.186-.42.444-.542.776-.123.331-.184.714-.184 1.148 0 .441.061.822.184 1.143.126.319.306.566.542.741.238.173.532.259.88.259ZM167.901 139.144c-.487 0-.921-.084-1.302-.253-.381-.173-.683-.426-.905-.761-.219-.338-.328-.759-.328-1.263 0-.424.078-.78.234-1.069.155-.288.368-.52.636-.696.268-.175.573-.308.915-.397.344-.09.706-.153 1.084-.189.444-.047.802-.09 1.073-.13.272-.043.469-.106.592-.188.123-.083.184-.206.184-.368v-.03c0-.315-.099-.559-.298-.731-.196-.172-.474-.259-.836-.259-.381 0-.684.085-.909.254-.226.166-.375.375-.448.626l-1.959-.159c.1-.464.295-.865.587-1.203.292-.341.668-.603 1.129-.785.464-.186 1.001-.279 1.61-.279.425 0 .831.05 1.218.149.392.1.738.254 1.04.463.304.209.545.477.72.805.176.325.264.714.264 1.168V139h-2.009v-1.059h-.059c-.123.239-.287.449-.492.632-.206.178-.453.319-.741.422-.289.1-.622.149-1 .149Zm.607-1.461c.312 0 .587-.062.825-.184.239-.126.426-.295.562-.507.136-.213.204-.453.204-.721v-.811c-.066.043-.158.083-.274.12-.112.033-.24.064-.382.094-.143.027-.285.051-.428.075-.142.02-.272.038-.388.054-.248.037-.465.095-.651.174-.186.08-.33.188-.433.323-.102.133-.154.299-.154.498 0 .288.105.508.314.661.212.149.48.224.805.224ZM175.963 134.585V139h-2.118v-7.636h2.018v1.347h.09c.169-.444.452-.795.85-1.054.398-.262.88-.393 1.447-.393.53 0 .992.116 1.387.348.394.232.701.564.92.995.218.427.328.938.328 1.531V139h-2.118v-4.484c.003-.468-.116-.832-.358-1.094-.242-.265-.575-.398-.999-.398-.285 0-.537.062-.756.184-.215.123-.385.302-.507.537-.119.232-.181.512-.184.84ZM182.554 139v-7.636h2.118V139h-2.118Zm1.064-8.621c-.315 0-.585-.104-.81-.313-.223-.212-.334-.466-.334-.761 0-.291.111-.541.334-.75.225-.212.495-.318.81-.318.315 0 .583.106.805.318.226.209.338.459.338.75 0 .295-.112.549-.338.761-.222.209-.49.313-.805.313ZM189.819 139.149c-.782 0-1.455-.166-2.019-.497-.56-.335-.991-.799-1.292-1.392-.299-.593-.448-1.276-.448-2.048 0-.782.151-1.469.453-2.059.305-.593.737-1.055 1.297-1.387.56-.334 1.227-.502 1.999-.502.666 0 1.249.121 1.75.363.5.242.896.582 1.188 1.019.292.438.452.952.482 1.542h-1.998c-.057-.382-.206-.688-.448-.92-.238-.235-.552-.353-.939-.353-.329 0-.615.089-.861.268-.241.176-.43.433-.566.771-.136.338-.204.747-.204 1.228 0 .487.066.901.199 1.243.136.341.326.601.571.78.246.179.532.269.861.269.242 0 .459-.05.651-.149.195-.1.356-.244.482-.433.129-.192.214-.422.254-.691h1.998c-.033.583-.192 1.097-.477 1.541-.282.441-.671.786-1.168 1.034-.498.249-1.086.373-1.765.373ZM206.849 132.383h-2.178c-.039-.282-.121-.532-.243-.751-.123-.222-.28-.411-.473-.567-.192-.155-.414-.275-.666-.358-.248-.082-.518-.124-.81-.124-.527 0-.986.131-1.377.393-.391.258-.695.636-.91 1.133-.215.494-.323 1.094-.323 1.8 0 .726.108 1.336.323 1.83.219.494.524.866.915 1.118.391.252.843.378 1.357.378.288 0 .555-.038.8-.114.249-.076.469-.187.662-.333.192-.149.351-.33.477-.542.129-.212.219-.454.268-.726l2.178.01c-.056.467-.197.918-.423 1.352-.222.431-.522.817-.9 1.159-.374.338-.822.606-1.342.805-.517.195-1.102.293-1.755.293-.908 0-1.72-.205-2.436-.616-.713-.411-1.276-1.006-1.69-1.785-.411-.779-.617-1.722-.617-2.829 0-1.11.209-2.055.627-2.834.417-.779.984-1.372 1.7-1.779.716-.411 1.521-.617 2.416-.617.59 0 1.137.083 1.641.249.507.165.956.407 1.347.725.391.315.709.701.955 1.159.248.457.407.981.477 1.571ZM211.803 139.149c-.772 0-1.44-.164-2.003-.492-.561-.331-.993-.792-1.298-1.382-.305-.593-.457-1.281-.457-2.063 0-.789.152-1.479.457-2.068.305-.594.737-1.054 1.298-1.383.563-.331 1.231-.497 2.003-.497s1.439.166 1.999.497c.563.329.997.789 1.302 1.383.305.589.458 1.279.458 2.068 0 .782-.153 1.47-.458 2.063-.305.59-.739 1.051-1.302 1.382-.56.328-1.227.492-1.999.492Zm.01-1.64c.351 0 .645-.1.88-.299.235-.202.413-.477.532-.825.123-.348.184-.744.184-1.188 0-.444-.061-.84-.184-1.188-.119-.348-.297-.624-.532-.826-.235-.202-.529-.303-.88-.303-.355 0-.653.101-.895.303-.238.202-.419.478-.542.826-.119.348-.179.744-.179 1.188 0 .444.06.84.179 1.188.123.348.304.623.542.825.242.199.54.299.895.299ZM216.939 139v-7.636h2.018v1.347h.09c.159-.447.424-.8.795-1.059.371-.258.815-.388 1.333-.388.523 0 .969.131 1.337.393.368.259.613.61.736 1.054h.079c.156-.437.438-.787.845-1.049.411-.265.897-.398 1.457-.398.713 0 1.291.227 1.735.681.448.451.671 1.091.671 1.919V139h-2.113v-4.718c0-.424-.112-.742-.338-.955-.225-.212-.507-.318-.845-.318-.384 0-.684.123-.9.368-.215.242-.323.562-.323.96V139h-2.053v-4.763c0-.374-.108-.673-.323-.895-.212-.222-.492-.333-.84-.333-.236 0-.448.06-.637.179-.185.116-.333.28-.442.492-.11.209-.164.455-.164.736V139h-2.118ZM229.708 141.864v-10.5h2.088v1.282h.095c.093-.205.227-.414.403-.626.178-.215.41-.394.696-.537.288-.146.646-.219 1.073-.219.557 0 1.071.146 1.542.438.47.288.846.724 1.128 1.307.282.58.423 1.308.423 2.183 0 .852-.138 1.571-.413 2.157-.272.584-.643 1.026-1.114 1.328-.467.298-.991.447-1.571.447-.411 0-.76-.068-1.049-.203-.285-.136-.518-.307-.701-.513-.182-.208-.321-.419-.417-.631h-.065v4.087h-2.118Zm2.073-6.682c0 .454.063.85.189 1.188.126.338.309.602.547.791.239.185.529.278.87.278.345 0 .637-.094.875-.283.239-.193.42-.458.542-.796.126-.341.189-.734.189-1.178 0-.441-.061-.829-.184-1.163-.123-.335-.303-.597-.542-.786-.238-.189-.532-.283-.88-.283-.344 0-.636.091-.875.273-.235.182-.416.441-.542.776-.126.334-.189.729-.189 1.183ZM242.048 139.149c-.786 0-1.462-.159-2.029-.477-.563-.322-.997-.776-1.302-1.362-.305-.59-.458-1.288-.458-2.093 0-.786.153-1.475.458-2.068.305-.594.734-1.056 1.287-1.388.557-.331 1.21-.497 1.959-.497.504 0 .973.081 1.407.244.438.159.819.399 1.144.721.328.321.583.726.765 1.213.183.484.274 1.05.274 1.7v.582h-6.448v-1.313h4.454c0-.305-.066-.575-.199-.81-.132-.235-.316-.419-.552-.552-.232-.136-.502-.204-.81-.204-.321 0-.606.075-.855.224-.245.146-.438.343-.577.592-.139.245-.21.518-.214.82v1.248c0 .378.07.704.209.979.143.275.343.487.602.637.258.149.565.223.92.223.235 0 .45-.033.646-.099.195-.066.363-.166.502-.298.139-.133.245-.295.318-.488l1.959.13c-.099.47-.303.881-.612 1.233-.304.348-.699.619-1.183.815-.48.192-1.036.288-1.665.288ZM250.997 131.364v1.591h-4.599v-1.591h4.599Zm-3.555-1.83h2.118v7.119c0 .196.03.348.089.458.06.106.143.18.249.224.109.043.235.064.378.064.099 0 .199-.008.298-.025.099-.02.176-.034.229-.044l.333 1.576c-.106.033-.255.071-.448.114-.192.046-.426.075-.701.084-.51.02-.957-.048-1.342-.203-.381-.156-.678-.398-.89-.726-.212-.328-.316-.743-.313-1.243v-7.398ZM252.376 139v-7.636h2.118V139h-2.118Zm1.064-8.621c-.315 0-.585-.104-.81-.313-.222-.212-.333-.466-.333-.761 0-.291.111-.541.333-.75.225-.212.495-.318.81-.318.315 0 .583.106.806.318.225.209.338.459.338.75 0 .295-.113.549-.338.761-.223.209-.491.313-.806.313ZM260.252 131.364v1.591h-4.598v-1.591h4.598Zm-3.554-1.83h2.118v7.119c0 .196.03.348.089.458.06.106.143.18.249.224.109.043.235.064.378.064.099 0 .198-.008.298-.025.099-.02.176-.034.229-.044l.333 1.576c-.106.033-.256.071-.448.114-.192.046-.426.075-.701.084-.51.02-.958-.048-1.342-.203-.381-.156-.678-.398-.89-.726-.212-.328-.317-.743-.313-1.243v-7.398ZM265 139.149c-.772 0-1.44-.164-2.003-.492-.56-.331-.993-.792-1.298-1.382-.305-.593-.457-1.281-.457-2.063 0-.789.152-1.479.457-2.068.305-.594.738-1.054 1.298-1.383.563-.331 1.231-.497 2.003-.497.773 0 1.439.166 1.999.497.563.329.998.789 1.302 1.383.305.589.458 1.279.458 2.068 0 .782-.153 1.47-.458 2.063-.304.59-.739 1.051-1.302 1.382-.56.328-1.226.492-1.999.492Zm.01-1.64c.352 0 .645-.1.88-.299.236-.202.413-.477.532-.825.123-.348.184-.744.184-1.188 0-.444-.061-.84-.184-1.188-.119-.348-.296-.624-.532-.826-.235-.202-.528-.303-.88-.303-.354 0-.653.101-.895.303-.238.202-.419.478-.541.826-.12.348-.179.744-.179 1.188 0 .444.059.84.179 1.188.122.348.303.623.541.825.242.199.541.299.895.299ZM270.136 139v-7.636h2.053v1.332h.08c.139-.474.373-.832.701-1.074.328-.245.706-.368 1.133-.368.106 0 .221.007.343.02.123.013.231.032.324.055v1.879c-.1-.03-.237-.056-.413-.079-.176-.024-.337-.035-.482-.035-.312 0-.59.068-.836.204-.242.132-.434.318-.576.556-.139.239-.209.514-.209.826V139h-2.118ZM282.218 133.541l-1.939.12c-.033-.166-.104-.315-.213-.448-.11-.136-.254-.243-.433-.323-.176-.083-.386-.124-.631-.124-.329 0-.605.069-.831.208-.225.136-.338.319-.338.547 0 .183.073.337.219.463.146.126.396.227.751.303l1.382.278c.742.153 1.296.398 1.66.736.365.338.547.782.547 1.333 0 .5-.147.939-.442 1.317-.292.378-.693.673-1.203.885-.507.209-1.092.313-1.755.313-1.011 0-1.817-.21-2.417-.631-.596-.424-.946-1.001-1.049-1.73l2.084-.11c.063.309.215.544.457.706.242.159.552.239.93.239.371 0 .669-.071.895-.214.228-.146.344-.333.348-.562-.004-.192-.085-.349-.244-.472-.159-.126-.404-.222-.736-.288l-1.322-.264c-.746-.149-1.301-.407-1.666-.775-.361-.368-.542-.837-.542-1.407 0-.491.133-.913.398-1.268.268-.355.645-.628 1.129-.82.487-.193 1.057-.289 1.71-.289.964 0 1.723.204 2.277.612.557.407.881.963.974 1.665Z" fill="#6C6E79"/>
    </g>
  </g>
  <defs>
    <filter id="b" x="-4" y="4" width="341" height="206" filterUnits="userSpaceOnUse" color-interpolation-filters="sRGB">
      <feFlood flood-opacity="0" result="BackgroundImageFix"/>
      <feColorMatrix in="SourceAlpha" values="0 0 0 0 0 0 0 0 0 0 0 0 0 0 0 0 0 0 127 0" result="hardAlpha"/>
      <feOffset dy="8"/>
      <feGaussianBlur stdDeviation="16"/>
      <feComposite in2="hardAlpha" operator="out"/>
      <feColorMatrix values="0 0 0 0 0.0980392 0 0 0 0 0.105882 0 0 0 0 0.137255 0 0 0 0.08 0"/>
      <feBlend in2="BackgroundImageFix" result="effect1_dropShadow_245_40877"/>
      <feBlend in="SourceGraphic" in2="effect1_dropShadow_245_40877" result="shape"/>
    </filter>
    <filter id="c" x="55" y="84" width="377" height="206" filterUnits="userSpaceOnUse" color-interpolation-filters="sRGB">
      <feFlood flood-opacity="0" result="BackgroundImageFix"/>
      <feColorMatrix in="SourceAlpha" values="0 0 0 0 0 0 0 0 0 0 0 0 0 0 0 0 0 0 127 0" result="hardAlpha"/>
      <feOffset dy="8"/>
      <feGaussianBlur stdDeviation="16"/>
      <feComposite in2="hardAlpha" operator="out"/>
      <feColorMatrix values="0 0 0 0 0.0980392 0 0 0 0 0.105882 0 0 0 0 0.137255 0 0 0 0.08 0"/>
      <feBlend in2="BackgroundImageFix" result="effect1_dropShadow_245_40877"/>
      <feBlend in="SourceGraphic" in2="effect1_dropShadow_245_40877" result="shape"/>
    </filter>
    <filter id="d" x="103" y="150" width="100" height="28" filterUnits="userSpaceOnUse" color-interpolation-filters="sRGB">
      <feFlood flood-opacity="0" result="BackgroundImageFix"/>
      <feBlend in="SourceGraphic" in2="BackgroundImageFix" result="shape"/>
      <feColorMatrix in="SourceAlpha" values="0 0 0 0 0 0 0 0 0 0 0 0 0 0 0 0 0 0 127 0" result="hardAlpha"/>
      <feOffset dy="-1"/>
      <feComposite in2="hardAlpha" operator="arithmetic" k2="-1" k3="1"/>
      <feColorMatrix values="0 0 0 0 0.878431 0 0 0 0 0.882353 0 0 0 0 0.913725 0 0 0 1 0"/>
      <feBlend in2="shape" result="effect1_innerShadow_245_40877"/>
    </filter>
    <filter id="e" x="203" y="150" width="83" height="28" filterUnits="userSpaceOnUse" color-interpolation-filters="sRGB">
      <feFlood flood-opacity="0" result="BackgroundImageFix"/>
      <feBlend in="SourceGraphic" in2="BackgroundImageFix" result="shape"/>
      <feColorMatrix in="SourceAlpha" values="0 0 0 0 0 0 0 0 0 0 0 0 0 0 0 0 0 0 127 0" result="hardAlpha"/>
      <feOffset dy="-1"/>
      <feComposite in2="hardAlpha" operator="arithmetic" k2="-1" k3="1"/>
      <feColorMatrix values="0 0 0 0 0.878431 0 0 0 0 0.882353 0 0 0 0 0.913725 0 0 0 1 0"/>
      <feBlend in2="shape" result="effect1_innerShadow_245_40877"/>
    </filter>
    <filter id="f" x="286" y="150" width="98" height="28" filterUnits="userSpaceOnUse" color-interpolation-filters="sRGB">
      <feFlood flood-opacity="0" result="BackgroundImageFix"/>
      <feBlend in="SourceGraphic" in2="BackgroundImageFix" result="shape"/>
      <feColorMatrix in="SourceAlpha" values="0 0 0 0 0 0 0 0 0 0 0 0 0 0 0 0 0 0 127 0" result="hardAlpha"/>
      <feOffset dy="-1"/>
      <feComposite in2="hardAlpha" operator="arithmetic" k2="-1" k3="1"/>
      <feColorMatrix values="0 0 0 0 0.878431 0 0 0 0 0.882353 0 0 0 0 0.913725 0 0 0 1 0"/>
      <feBlend in2="shape" result="effect1_innerShadow_245_40877"/>
    </filter>
    <filter id="g" x="103" y="178" width="100" height="28" filterUnits="userSpaceOnUse" color-interpolation-filters="sRGB">
      <feFlood flood-opacity="0" result="BackgroundImageFix"/>
      <feBlend in="SourceGraphic" in2="BackgroundImageFix" result="shape"/>
      <feColorMatrix in="SourceAlpha" values="0 0 0 0 0 0 0 0 0 0 0 0 0 0 0 0 0 0 127 0" result="hardAlpha"/>
      <feOffset dy="-1"/>
      <feComposite in2="hardAlpha" operator="arithmetic" k2="-1" k3="1"/>
      <feColorMatrix values="0 0 0 0 0.878431 0 0 0 0 0.882353 0 0 0 0 0.913725 0 0 0 1 0"/>
      <feBlend in2="shape" result="effect1_innerShadow_245_40877"/>
    </filter>
    <filter id="h" x="203" y="178" width="83" height="28" filterUnits="userSpaceOnUse" color-interpolation-filters="sRGB">
      <feFlood flood-opacity="0" result="BackgroundImageFix"/>
      <feBlend in="SourceGraphic" in2="BackgroundImageFix" result="shape"/>
      <feColorMatrix in="SourceAlpha" values="0 0 0 0 0 0 0 0 0 0 0 0 0 0 0 0 0 0 127 0" result="hardAlpha"/>
      <feOffset dy="-1"/>
      <feComposite in2="hardAlpha" operator="arithmetic" k2="-1" k3="1"/>
      <feColorMatrix values="0 0 0 0 0.878431 0 0 0 0 0.882353 0 0 0 0 0.913725 0 0 0 1 0"/>
      <feBlend in2="shape" result="effect1_innerShadow_245_40877"/>
    </filter>
    <filter id="i" x="286" y="178" width="98" height="28" filterUnits="userSpaceOnUse" color-interpolation-filters="sRGB">
      <feFlood flood-opacity="0" result="BackgroundImageFix"/>
      <feBlend in="SourceGraphic" in2="BackgroundImageFix" result="shape"/>
      <feColorMatrix in="SourceAlpha" values="0 0 0 0 0 0 0 0 0 0 0 0 0 0 0 0 0 0 127 0" result="hardAlpha"/>
      <feOffset dy="-1"/>
      <feComposite in2="hardAlpha" operator="arithmetic" k2="-1" k3="1"/>
      <feColorMatrix values="0 0 0 0 0.878431 0 0 0 0 0.882353 0 0 0 0 0.913725 0 0 0 1 0"/>
      <feBlend in2="shape" result="effect1_innerShadow_245_40877"/>
    </filter>
    <filter id="j" x="103" y="206" width="100" height="28" filterUnits="userSpaceOnUse" color-interpolation-filters="sRGB">
      <feFlood flood-opacity="0" result="BackgroundImageFix"/>
      <feBlend in="SourceGraphic" in2="BackgroundImageFix" result="shape"/>
      <feColorMatrix in="SourceAlpha" values="0 0 0 0 0 0 0 0 0 0 0 0 0 0 0 0 0 0 127 0" result="hardAlpha"/>
      <feOffset dy="-1"/>
      <feComposite in2="hardAlpha" operator="arithmetic" k2="-1" k3="1"/>
      <feColorMatrix values="0 0 0 0 0.878431 0 0 0 0 0.882353 0 0 0 0 0.913725 0 0 0 1 0"/>
      <feBlend in2="shape" result="effect1_innerShadow_245_40877"/>
    </filter>
    <filter id="k" x="203" y="206" width="83" height="28" filterUnits="userSpaceOnUse" color-interpolation-filters="sRGB">
      <feFlood flood-opacity="0" result="BackgroundImageFix"/>
      <feBlend in="SourceGraphic" in2="BackgroundImageFix" result="shape"/>
      <feColorMatrix in="SourceAlpha" values="0 0 0 0 0 0 0 0 0 0 0 0 0 0 0 0 0 0 127 0" result="hardAlpha"/>
      <feOffset dy="-1"/>
      <feComposite in2="hardAlpha" operator="arithmetic" k2="-1" k3="1"/>
      <feColorMatrix values="0 0 0 0 0.878431 0 0 0 0 0.882353 0 0 0 0 0.913725 0 0 0 1 0"/>
      <feBlend in2="shape" result="effect1_innerShadow_245_40877"/>
    </filter>
    <filter id="l" x="286" y="206" width="98" height="28" filterUnits="userSpaceOnUse" color-interpolation-filters="sRGB">
      <feFlood flood-opacity="0" result="BackgroundImageFix"/>
      <feBlend in="SourceGraphic" in2="BackgroundImageFix" result="shape"/>
      <feColorMatrix in="SourceAlpha" values="0 0 0 0 0 0 0 0 0 0 0 0 0 0 0 0 0 0 127 0" result="hardAlpha"/>
      <feOffset dy="-1"/>
      <feComposite in2="hardAlpha" operator="arithmetic" k2="-1" k3="1"/>
      <feColorMatrix values="0 0 0 0 0.878431 0 0 0 0 0.882353 0 0 0 0 0.913725 0 0 0 1 0"/>
      <feBlend in2="shape" result="effect1_innerShadow_245_40877"/>
    </filter>
    <clipPath id="a">
      <path fill="#fff" d="M0 0h430v280H0z"/>
    </clipPath>
  </defs>
</svg>
